SplineFontDB: 3.0
FontName: Untitled
FullName: Untitled 
FamilyName: Untitled
Weight: Normal
Copyright: Copyright 2011 Adobe Systems Incorporated. All rights reserved.
Version: 001.001
ItalicAngle: 0
UnderlinePosition: -50
UnderlineWidth: 50
Ascent: 750
Descent: 250
sfntRevision: 0x00010000
LayerCount: 2
Layer: 0 0 "Back"  1
Layer: 1 0 "Fore"  0
NeedsXUIDChange: 1
XUID: [1021 14 500265001 14779192]
FSType: 4
OS2Version: 3
OS2_WeightWidthSlopeOnly: 0
OS2_UseTypoMetrics: 1
CreationTime: 1313529237
ModificationTime: 1313940893
PfmFamily: 81
TTFWeight: 400
TTFWidth: 5
LineGap: 9
VLineGap: 0
Panose: 0 0 0 0 0 0 0 0 0 0
OS2TypoAscent: 0
OS2TypoAOffset: 1
OS2TypoDescent: 0
OS2TypoDOffset: 1
OS2TypoLinegap: 0
OS2WinAscent: -12
OS2WinAOffset: 1
OS2WinDescent: -259
OS2WinDOffset: 1
HheadAscent: -262
HheadAOffset: 1
HheadDescent: 9
HheadDOffset: 1
OS2SubXSize: 650
OS2SubYSize: 600
OS2SubXOff: 0
OS2SubYOff: 75
OS2SupXSize: 650
OS2SupYSize: 600
OS2SupXOff: 0
OS2SupYOff: 350
OS2StrikeYSize: 50
OS2StrikeYPos: 300
OS2Vendor: 'pyrs'
OS2CodePages: 20000000.00000000
OS2UnicodeRanges: 00000001.00000000.00000000.00000000
DEI: 91125
LangName: 1033 "" "" "Regular" "1.000;pyrs;Untitled" "Untitled" "Version 1.000;PS 001.001;hotconv 1.0.56" "" "Please refer to the Copyright section for the font trademark attribution notices." 
Encoding: ISO8859-1
UnicodeInterp: none
NameList: Adobe Glyph List
DisplaySize: -48
AntiAlias: 1
FitToEm: 1
WidthSeparation: 80
WinInfo: 0 22 12
BeginPrivate: 0
EndPrivate
BeginChars: 266 92

StartChar: exclam
Encoding: 33 33 2
Width: 519
Flags: HW
LayerCount: 2
Fore
SplineSet
485.923828125 778.127929688 m 1
 442.19140625 620.181640625 321.158203125 280.810546875 146.979492188 235 c 1
 133.973632812 235 116.158203125 241.91015625 116.158203125 254.590820312 c 1
 169.040039062 457.53125 228.6875 768.689453125 441.979492188 791 c 0
 448.37109375 791 455.534179688 791.530273438 462.193359375 791.530273438 c 0
 474.991210938 791.530273438 485.923828125 789.572265625 485.923828125 778.127929688 c 1
31 55.4716796875 m 0
 31.830078125 148.911132812 122.278320312 210.049804688 196.723632812 210.049804688 c 0
 197.107421875 210.049804688 197.491210938 210.048828125 197.874023438 210.044921875 c 0
 215.763671875 210.044921875 237.451171875 207.106445312 237.451171875 194.181640625 c 0
 237.451171875 106.7890625 156.1171875 12.7939453125 79.9794921875 11 c 0
 49.6533203125 11 31 26.3935546875 31 55.4716796875 c 0
EndSplineSet
EndChar

StartChar: dollar
Encoding: 36 36 3
Width: 630
Flags: HW
HStem: 495 21G<513.156 538.134>
LayerCount: 2
Back
SplineSet
596.28125 604.146484375 m 4
 594.822265625 561.55078125 556.962890625 495 519.565429688 495 c 4
 504.74609375 495 499.23828125 516 477.565429688 516 c 4
 454.340820312 516 428.918945312 438.379882812 426.103515625 416.325195312 c 5
 426.103515625 416 l 6
 426.103515625 413.556640625 425.1328125 404.719726562 425.1328125 402 c 6
 425.1328125 400.397460938 l 5
 460.096679688 349.936523438 498.2890625 295.817382812 498.2890625 228.982421875 c 4
 498.2890625 48.806640625 356.529296875 2.05859375 233.427734375 -41 c 4
 187.844726562 -56.693359375 203.133789062 -125.166992188 164.045898438 -131.559570312 c 5
 169.122070312 -101.62109375 182.880859375 -78.0302734375 182.880859375 -47.9052734375 c 4
 182.880859375 -36.1572265625 174.384765625 -33 161.221679688 -33 c 4
 114.615234375 -33 118.73828125 -130 84.5654296875 -130 c 4
 78.59765625 -130 77.8935546875 -132.174804688 79.513671875 -117.54296875 c 4
 83.51953125 -84.3818359375 106.013671875 -55.044921875 106.013671875 -17.271484375 c 4
 106.013671875 31.4814453125 30 24.5400390625 30 69.849609375 c 4
 30 115.446289062 107.541992188 176.997070312 143.565429688 179 c 4
 156.241210938 179 162.681640625 171 177.715820312 171 c 4
 206.395507812 171 233.53125 257.857421875 233.53125 285.078125 c 4
 233.53125 343.814453125 137.953125 383.634765625 137.953125 478.00390625 c 4
 137.953125 657.154296875 294.76171875 705.150390625 419.051757812 722.006835938 c 4
 440.795898438 725.552734375 449.685546875 743 463.943359375 743 c 4
 476.52734375 743 474.846679688 714 500.565429688 714 c 4
 527.522460938 714 534.3203125 744 552.565429688 744 c 4
 561.75390625 744 564.540039062 739.208984375 564.540039062 732.247070312 c 4
 564.540039062 721.521484375 557.9296875 705.641601562 557.9296875 694.1796875 c 4
 557.9296875 652.83203125 596.78515625 640.729492188 596.28125 604.146484375 c 4
285.323242188 102.573242188 m 4
 285.323242188 89.8505859375 296.841796875 88.9697265625 302.380859375 88.9697265625 c 4
 303.365234375 88.9697265625 304.203125 89 304.8203125 89 c 4
 305.01171875 89 306.26953125 88.861328125 308.087890625 88.861328125 c 4
 313.76953125 88.861328125 326.12890625 90.1494140625 326.12890625 101.370117188 c 6
 326.12890625 156 l 5
 297.12890625 156 285.323242188 125.416015625 285.323242188 102.573242188 c 4
276.682617188 251 m 4
 269.895507812 251 265.528320312 246.786132812 262.692382812 241.33984375 c 4
 252.65234375 221.793945312 224.118164062 159.239257812 218.646484375 122 c 5
 229.139648438 122 l 5
 269.809570312 117.385742188 274.858398438 193.2890625 293.072265625 216.666992188 c 4
 294.181640625 219.583984375 293.655273438 223.404296875 293.655273438 227.076171875 c 4
 293.655273438 238.705078125 290.81640625 251 276.682617188 251 c 4
375.788085938 491.384765625 m 5
 375.788085938 463 l 5
 411.905273438 463 452.395507812 554.538085938 452.395507812 580.815429688 c 4
 452.395507812 591.16015625 447.188476562 610 435.805664062 610 c 4
 427.631835938 610 424.73046875 604.62890625 420.823242188 597.88671875 c 6
 375.788085938 491.384765625 l 5
370.798828125 637 m 4
 336.548828125 637 330.875976562 586.780273438 328.293945312 555.203125 c 4
 328.293945312 545.655273438 330.85546875 537 340.720703125 537 c 4
 361.94921875 537 383.340820312 587.000976562 383.340820312 616.290039062 c 4
 383.340820312 628.421875 379.670898438 637 370.798828125 637 c 4
EndSplineSet
Fore
SplineSet
138.953125 478.00390625 m 0
 138.953125 674.77734375 313.142578125 725.912109375 468.947265625 725.912109375 c 0
 549.708007812 725.912109375 597.286132812 688.43359375 597.286132812 604.850585938 c 0
 597.286132812 561.87890625 557.227539062 495 520.565429688 495 c 0
 457.438476562 495 386.568359375 637 371.798828125 637 c 0
 337.548828125 637 329.293945312 586.885742188 329.293945312 555.203125 c 0
 329.293945312 498.401367188 499.2890625 325.27734375 499.2890625 229.145507812 c 0
 499.112304688 51.8818359375 379.1640625 -41.2587890625 226.48046875 -41.2587890625 c 0
 150.262695312 -41.2587890625 31 26.09375 31 69.849609375 c 0
 31 115.446289062 108.486328125 179 144.565429688 179 c 0
 181.762695312 179 281.606445312 89 295.8203125 89 c 0
 296.212890625 89 296.654296875 88.9990234375 297.137695312 88.9990234375 c 0
 305.633789062 88.9990234375 327.12890625 89.3232421875 327.12890625 101.370117188 c 0
 327.12890625 280.884765625 138.953125 350.731445312 138.953125 478.00390625 c 0
EndSplineSet
EndChar

StartChar: ampersand
Encoding: 38 38 4
Width: 688
Flags: HW
HStem: 57 58<280.128 360.039> 745 83<434.572 521.133>
LayerCount: 2
Fore
SplineSet
242.50390625 498.674804688 m 0
 242.50390625 658.7265625 372.709960938 828 515.962890625 828 c 0
 597.887695312 828 654.598632812 789.686523438 654.598632812 709.491210938 c 0
 653.376953125 571.250976562 497.588867188 484.016601562 415.586914062 416.512695312 c 1
 415.586914062 414.385742188 l 1
 414.0546875 409.3125 413.352539062 404.008789062 413.352539062 398.541992188 c 0
 413.352539062 345.862304688 466.71484375 255 494.97265625 255 c 2
 537.426757812 255 l 1
 533.174804688 196.633789062 632.618164062 153.659179688 632.618164062 131.276367188 c 0
 632.618164062 61.20703125 532.844726562 1 481.854492188 1 c 0
 430.508789062 1 402.608398438 57 360.0390625 57 c 1
 300.204101562 37.3935546875 242.772460938 -15.3310546875 164.139648438 -15.3310546875 c 0
 157.09375 -15.3310546875 149.87890625 -14.908203125 142.4765625 -14 c 0
 76.189453125 -14 32 47.0693359375 32 111.881835938 c 0
 32 260.932617188 244.982421875 300.69921875 244.982421875 438.24609375 c 0
 244.982421875 458.052734375 242.50390625 478.69921875 242.50390625 498.674804688 c 0
255.037109375 266.3203125 m 1
 229.583984375 248.029296875 214.97265625 211.1484375 214.97265625 180.502929688 c 0
 214.97265625 140.182617188 241.629882812 115 280.127929688 115 c 0
 294.633789062 115 312.244140625 124.208984375 312.244140625 142.338867188 c 0
 312.244140625 154.192382812 290.623046875 232.497070312 255.037109375 263.795898438 c 1
 255.037109375 266.3203125 l 1
472.109375 745 m 0
 404.970703125 745 381.090820312 615.623046875 381.090820312 560.166992188 c 0
 381.090820312 545.356445312 384.708007812 532 399.020507812 532 c 0
 453.663085938 532 487.331054688 680.91015625 489.795898438 725.374023438 c 0
 489.795898438 736.249023438 486.205078125 745 472.109375 745 c 0
EndSplineSet
EndChar

StartChar: quoteright
Encoding: 257 8217 5
Width: 232
Flags: HW
HStem: 586 255<81.8775 118.984>
VStem: 36.3497 161.097
LayerCount: 2
Fore
SplineSet
55.791015625 604.041992188 m 0
 55.791015625 632.584960938 80.744140625 646.084960938 80.90625 678.447265625 c 0
 80.90625 719.501953125 36 730.703125 36 762.3984375 c 0
 36 806.291992188 111.114257812 841 144.395507812 841 c 0
 180.821289062 841 198.581054688 801.547851562 198.581054688 762.616210938 c 0
 198.581054688 694.3515625 133.561523438 590.8671875 69.3955078125 586 c 0
 59.431640625 586 55.791015625 593.1640625 55.791015625 604.041992188 c 0
EndSplineSet
EndChar

StartChar: parenleft
Encoding: 40 40 6
Width: 486
Flags: HW
VStem: 32 177.812<147.209 372.246>
LayerCount: 2
Fore
SplineSet
209.8125 238.092773438 m 1
 208.497070312 230.586914062 207.887695312 223.447265625 207.887695312 216.6328125 c 0
 207.887695312 142.444335938 280.116210938 106.985351562 299.561523438 60.65234375 c 1
 299.561523438 14.115234375 229.862304688 6 199.791015625 6 c 0
 86.779296875 8.197265625 32 106.03125 32 217.592773438 c 0
 32 488.653320312 216.401367188 721.325195312 436.421875 834 c 1
 445.879882812 834 453.623046875 830.642578125 453.623046875 821.905273438 c 1
 353.51171875 643.109375 209.427734375 491.474609375 209.427734375 258.986328125 c 0
 209.427734375 252.09375 209.5546875 245.129882812 209.8125 238.092773438 c 1
EndSplineSet
EndChar

StartChar: plus
Encoding: 43 43 7
Width: 716
Flags: HW
HStem: 338 186<70.6946 251.971>
VStem: 348.306 120.125<551.936 771.522>
LayerCount: 2
Fore
SplineSet
280.991210938 507 m 0
 380.065429688 507 308.619140625 795 405.94921875 795 c 0
 453.784179688 795 468.610351562 751.022460938 468.610351562 700.922851562 c 0
 468.286132812 667.012695312 457.776367188 537.755859375 455.604492188 503.290039062 c 1
 471.080078125 485 l 1
 579.1328125 485 l 2
 625.366210938 485 682.674804688 479.44921875 682.674804688 438.5078125 c 0
 682.674804688 347.165039062 466.299804688 383.32421875 435.251953125 347.508789062 c 0
 390.254882812 295.602539062 393.0390625 68 285.873046875 68 c 0
 250.658203125 68 224.450195312 91.8388671875 224.450195312 126.30078125 c 2
 224.450195312 171.306640625 l 1
 231.311523438 223.407226562 261.354492188 269.247070312 265.951171875 324.733398438 c 0
 265.951171875 332.799804688 263.520507812 340 252.680664062 340 c 0
 237.654296875 340 215.3515625 338 191.178710938 338 c 0
 112.211914062 338 32 353.033203125 32 423.524414062 c 0
 32.673828125 495.625 91.6748046875 524.016601562 144.927734375 524.016601562 c 0
 145.6640625 524.016601562 146.3984375 524.010742188 147.1328125 524 c 0
 191.942382812 524 234.870117188 507 280.991210938 507 c 0
EndSplineSet
EndChar

StartChar: zero
Encoding: 48 48 8
Width: 670
Flags: HW
HStem: 42 121<194.042 347.807> 763 67<418.385 453.882>
LayerCount: 2
Fore
SplineSet
413.3984375 744.373046875 m 0
 312.875 633.07421875 232.349609375 496.102539062 232.336914062 335.971679688 c 0
 232.336914062 219.305664062 251.576171875 175.0703125 279.321289062 175.0703125 c 0
 351.038085938 175.0703125 479.583984375 470.62109375 479.583984375 574.776367188 c 0
 479.583984375 630.524414062 440.375 667.034179688 440.375 727.1015625 c 0
 440.375 737.458007812 450.596679688 742.743164062 452.938476562 757.177734375 c 1
 452.938476562 763 l 1
 439.293945312 763 422.599609375 754.876953125 413.3984375 744.373046875 c 0
197.990234375 42 m 0
 86.8115234375 42 32 142.46875 32 250.0703125 c 0
 32 496.303710938 241.373046875 830 471.498046875 830 c 0
 585.05078125 830 637.091796875 752.1171875 637.091796875 646.290039062 c 0
 637.091796875 425.493164062 409.69921875 42 197.990234375 42 c 0
EndSplineSet
EndChar

StartChar: one
Encoding: 49 49 9
Width: 536
Flags: HW
LayerCount: 2
Fore
SplineSet
31 104.942382812 m 0
 31 250.23828125 232.46875 450.735351562 252.138671875 602.31640625 c 1
 252.138671875 608 l 1
 233.8046875 608 212.760742188 602 196.5859375 602 c 0
 182.951171875 602 181.096679688 614.4453125 181.096679688 628.986328125 c 0
 181.096679688 728.853515625 416.232421875 830 478.5546875 830 c 0
 496.764648438 830 502.756835938 814.7109375 502.756835938 795.473632812 c 1
 452.228515625 605.7890625 372.02734375 488.67578125 309.099609375 312.901367188 c 0
 269.142578125 201.291015625 226.768554688 48 96.5546875 48 c 0
 63.0400390625 48 31 70.2275390625 31 104.942382812 c 0
EndSplineSet
EndChar

StartChar: two
Encoding: 50 50 10
Width: 583
Flags: HW
HStem: 51 183<196.789 353.374> 725 114<296.918 395.517>
LayerCount: 2
Fore
SplineSet
311.80859375 725 m 0
 228.852539062 723.329101562 278.70703125 498.563476562 226.848632812 476 c 1
 170.252929688 476 141.040039062 542.78125 141.040039062 599.8046875 c 0
 141.040039062 748.138671875 278.625 839 390.975585938 839 c 0
 479.661132812 839 550.484375 784.418945312 550.484375 696.129882812 c 0
 550.484375 524.606445312 366.76953125 367.948242188 265.700195312 257.245117188 c 1
 265.700195312 247.6640625 l 1
 264.001953125 235.34765625 297.510742188 233.842773438 317.322265625 233.842773438 c 0
 323.731445312 233.842773438 328.586914062 234 330.15234375 234 c 0
 376.59375 234 423.900390625 250 469.5625 250 c 1
 469.649414062 248.0703125 469.692382812 246.153320312 469.692382812 244.249023438 c 0
 469.692382812 120.282226562 287.6875 50.994140625 204.032226562 50.994140625 c 0
 203.58984375 50.994140625 203.149414062 50.99609375 202.711914062 51 c 0
 133.12109375 51 31 71.1845703125 31 127.291992188 c 1
 132.373046875 303.322265625 349.837890625 414.755859375 349.837890625 659.30859375 c 0
 349.837890625 661.814453125 349.814453125 664.334960938 349.768554688 666.869140625 c 0
 349.768554688 696.798828125 342.381835938 725 311.80859375 725 c 0
EndSplineSet
EndChar

StartChar: three
Encoding: 51 51 11
Width: 675
Flags: HW
HStem: 28 112<180.795 272.103> 733 113<409.53 505.289>
LayerCount: 2
Fore
SplineSet
184.66015625 28 m 0
 100.9140625 28 32 83.1611328125 32 166.661132812 c 0
 32 284.7890625 164.490234375 398.000976562 259.727539062 398.000976562 c 0
 270.947265625 398.000976562 279.471679688 397.711914062 279.471679688 387.448242188 c 0
 279.471679688 332.577148438 193.209960938 266.173828125 193.209960938 171.690429688 c 0
 193.209960938 153.81640625 199.018554688 140 222.634765625 140 c 0
 300.6640625 140 405.071289062 290.9140625 405.071289062 373.977539062 c 0
 405.071289062 453.067382812 321.658203125 452.403320312 321.658203125 479.997070312 c 0
 321.658203125 557.380859375 457.197265625 594.951171875 457.197265625 701.296875 c 0
 457.197265625 716.950195312 453.088867188 733 435.875976562 733 c 0
 408.30078125 733 311.580078125 554.028320312 290.177734375 554.028320312 c 0
 258.276367188 554.028320312 238.977539062 600.30859375 238.977539062 640.116210938 c 0
 238.977539062 777.666015625 403.373046875 846 501.11328125 846 c 0
 581.900390625 846 642.288085938 797.822265625 642.288085938 719.133789062 c 0
 642.288085938 604.078125 507.899414062 555.190429688 507.899414062 529.6875 c 0
 507.899414062 508.302734375 610.834960938 487.389648438 610.834960938 400.662109375 c 0
 610.834960938 237.368164062 309.895507812 28 184.66015625 28 c 0
EndSplineSet
EndChar

StartChar: four
Encoding: 52 52 12
Width: 564
Flags: HW
HStem: 331 502<158.346 366.372>
LayerCount: 2
Fore
SplineSet
31 372.020507812 m 1
 104.041992188 537.236328125 178.419921875 803.28515625 366.372070312 833 c 1
 389.290039062 833 403.762695312 832.602539062 403.762695312 811.169921875 c 0
 403.762695312 727.515625 241.7421875 592.471679688 193.553710938 492.29296875 c 1
 193.553710938 487.79296875 l 1
 204.198242188 482.268554688 209.71484375 476.860351562 221.623046875 476.860351562 c 0
 225.053710938 476.69921875 228.384765625 476.62109375 231.62109375 476.62109375 c 0
 372.276367188 476.62109375 333.536132812 625.147460938 471.008789062 625.147460938 c 0
 473.490234375 625.147460938 476.030273438 625.098632812 478.62890625 625 c 0
 499.243164062 625 531.836914062 622.712890625 531.836914062 605.795898438 c 0
 531.836914062 567.59765625 495.500976562 534.853515625 495.500976562 494.880859375 c 0
 495.500976562 473.908203125 527.771484375 483.294921875 527.771484375 469.077148438 c 1
 482.94921875 388.900390625 355.3125 263.157226562 338.784179688 127.874023438 c 1
 319.13671875 81.56640625 229.91796875 46 189.1640625 46 c 0
 158.275390625 46 133.91015625 56.509765625 133.91015625 85.5458984375 c 0
 133.91015625 164.131835938 223.127929688 233.02734375 223.127929688 305.703125 c 0
 223.127929688 314.450195312 221.8359375 323.252929688 218.939453125 332.1328125 c 1
 209.708984375 332.1328125 184.553710938 331 158.345703125 331 c 0
 143.026367188 331 125.913085938 330.123046875 109.325195312 330.123046875 c 0
 68.5751953125 330.123046875 31 335.416992188 31 372.020507812 c 1
EndSplineSet
EndChar

StartChar: five
Encoding: 53 53 13
Width: 623
Flags: W
HStem: 42 97<121.071 237.655> 660.92 167.322<330.307 458.954>
VStem: 32 132.374<140.383 247.286> 368.642 200.011<398.97 539.932>
LayerCount: 2
Fore
SplineSet
457.849609375 829.389648438 m 0
 464.7734375 828.474609375 473.049804688 828.2421875 482.0703125 828.2421875 c 0
 491.396484375 828.2421875 501.51953125 828.491210938 511.766601562 828.491210938 c 0
 543.885742188 828.491210938 577.236328125 826.049804688 591.163085938 805.870117188 c 1
 558.497070312 707.176757812 446.104492188 665.365234375 346.020507812 660.919921875 c 1
 329.349609375 657.036132812 320.060546875 627.153320312 318.475585938 617.4140625 c 1
 318.475585938 617 l 2
 318.475585938 612.916992188 321.891601562 605 329.141601562 605 c 0
 366.359375 605 406.001953125 621 443.556640625 621 c 0
 527.1640625 621 568.65234375 578.8984375 568.65234375 500.965820312 c 0
 568.65234375 318.029296875 324.560546875 42 167.21484375 42 c 0
 77.765625 42 32 109.743164062 32 194.305664062 c 0
 32 323.688476562 139.639648438 458 253.510742188 458 c 0
 264.99609375 458 280.76171875 453.421875 280.76171875 444.596679688 c 0
 280.76171875 374.596679688 164.374023438 269.790039062 164.374023438 159.752929688 c 0
 164.374023438 148.197265625 168.439453125 139 183.698242188 139 c 0
 271.557617188 139 368.641601562 319.1484375 368.641601562 411.169921875 c 0
 368.641601562 472.481445312 346.475585938 492 276.782226562 492 c 0
 244.775390625 492 220.466796875 483 192.424804688 483 c 0
 165.720703125 483 153.541015625 494.588867188 153.541015625 519.565429688 c 1
 165.165039062 601.094726562 240.64453125 832.620117188 356.767578125 832.620117188 c 0
 361.708984375 832.620117188 366.724609375 832.200195312 371.811523438 831.333007812 c 0
 394.427734375 831.333007812 414.000976562 829.357421875 431.646484375 829.357421875 c 0
 440.756835938 829.357421875 449.424804688 829.389648438 457.849609375 829.389648438 c 0
EndSplineSet
EndChar

StartChar: six
Encoding: 54 54 14
Width: 644
Flags: HW
HStem: 41 122<222.139 349.885>
LayerCount: 2
Fore
SplineSet
329.930664062 163 m 1
 398.850585938 196.05078125 408.756835938 311.275390625 422.484375 388.548828125 c 1
 422.484375 447.796875 384.840820312 499 327.98828125 499 c 0
 258.359375 499 217.694335938 390.256835938 217.694335938 317.307617188 c 0
 217.694335938 238.373046875 266.684570312 163 329.930664062 163 c 1
571.522460938 807.7734375 m 1
 542.450195312 723.263671875 407.708984375 653.076171875 416.471679688 614 c 1
 443.413085938 614 475.37109375 620 501.1875 620 c 0
 576.102539062 620 610.522460938 557.424804688 610.522460938 486.088867188 c 0
 610.522460938 279.65234375 413.47265625 41 229.88671875 41 c 0
 121.09375 41 32 85.162109375 32 191.58984375 c 0
 32 380.670898438 268.12890625 719.936523438 396.822265625 821.904296875 c 0
 413.8828125 835.420898438 446.576171875 837 473.68359375 837 c 0
 480.983398438 837 491.323242188 837.458007812 502.569335938 837.458007812 c 0
 533.596679688 837.458007812 571.522460938 833.97265625 571.522460938 807.7734375 c 1
EndSplineSet
EndChar

StartChar: seven
Encoding: 55 55 15
Width: 631
Flags: HW
HStem: 807 20G<232.695 346.741>
LayerCount: 2
Fore
SplineSet
31 74.3349609375 m 0
 32.228515625 129.061523438 162.678710938 238.436523438 162.678710938 296.759765625 c 0
 162.678710938 335.586914062 120.034179688 316.421875 120.034179688 350.34765625 c 0
 120.034179688 526.651367188 253.033203125 442.377929688 279.91796875 488.390625 c 2
 396.364257812 687.6875 l 1
 396.364257812 694.051757812 389.74609375 705.0390625 381.122070312 705.0390625 c 0
 308.6015625 705.0390625 241.811523438 650 174.866210938 650 c 0
 161.247070312 650.172851562 142.336914062 650.297851562 142.336914062 660.993164062 c 0
 142.336914062 707.39453125 204.1171875 827 260.25390625 827 c 0
 310.241210938 827 342.9609375 827.169921875 366.356445312 827.169921875 c 0
 375.82421875 827.169921875 386.3984375 827.247070312 397.676757812 827.247070312 c 0
 472.86328125 827.247070312 579.3359375 823.8359375 597.979492188 771.537109375 c 1
 597.979492188 675.854492188 459.901367188 598.501953125 459.901367188 498.975585938 c 0
 459.901367188 482.26171875 471.774414062 478 483.595703125 478 c 0
 491.043945312 478 499.043945312 479 505.595703125 479 c 0
 516.69140625 479 521.166015625 477.872070312 519.639648438 465.657226562 c 0
 506.116210938 369.0625 392.115234375 387.2421875 352.01953125 316.356445312 c 0
 317.213867188 254.822265625 254.618164062 37.669921875 115.037109375 37.669921875 c 0
 106.826171875 37.669921875 98.349609375 38.4208984375 89.595703125 40 c 1
 59.1845703125 40 31 46.8037109375 31 74.3349609375 c 0
EndSplineSet
EndChar

StartChar: eight
Encoding: 56 56 16
Width: 641
Flags: HW
HStem: 28 90<198.381 280.328> 354 477<278.536 421.558>
LayerCount: 2
Fore
SplineSet
304.13671875 354 m 0
 246.897460938 354 206.9296875 179.592773438 206.9296875 151.359375 c 0
 206.9296875 133.043945312 212.704101562 118 236.16015625 118 c 0
 297.6953125 118 337.700195312 227.612304688 337.700195312 285.0859375 c 0
 337.700195312 316.7890625 327.948242188 354 304.13671875 354 c 0
483.788085938 804.10546875 m 1
 412.275390625 770.926757812 358.172851562 698.873046875 358.172851562 606.040039062 c 0
 358.172851562 581.516601562 362.200195312 559 389.591796875 559 c 0
 454.140625 559 470.28515625 674.215820312 470.28515625 732.772460938 c 0
 470.28515625 778.662109375 522.233398438 784.546875 551.665039062 785 c 0
 592.095703125 785 607.904296875 765.028320312 607.904296875 727.172851562 c 0
 607.904296875 605.482421875 452.442382812 499 452.442382812 479.404296875 c 0
 452.442382812 469.982421875 508.796875 381.89453125 508.796875 316.970703125 c 0
 508.796875 172.31640625 317.50390625 28 204.114257812 28 c 0
 113.618164062 28 32 70.6669921875 32 159.899414062 c 0
 32 313.159179688 232.275390625 419.978515625 232.275390625 431 c 0
 232.275390625 442.854492188 171.883789062 523.723632812 171.883789062 592.224609375 c 0
 171.883789062 730.591796875 304.486328125 831 415.811523438 831 c 0
 445.334960938 831 487.069335938 827.033203125 483.788085938 804.368164062 c 1
 483.788085938 804.10546875 l 1
EndSplineSet
EndChar

StartChar: nine
Encoding: 57 57 17
Width: 633
Flags: HW
HStem: 392 69<296.801 319.196> 766 67<350.989 441.254>
LayerCount: 2
Fore
SplineSet
396.091796875 766 m 0
 328.671875 766 271.604492188 624.321289062 271.604492188 564.5 c 0
 271.604492188 516.796875 291.897460938 461 337.86328125 461 c 0
 394.41796875 461 437.309570312 656.026367188 437.309570312 696.176757812 c 0
 437.309570312 728.282226562 427.284179688 766 396.091796875 766 c 0
69.5439453125 37 m 0
 50.974609375 37 31.2001953125 39.15234375 31.2001953125 54.8232421875 c 1
 22.5654296875 72.43359375 295.724609375 244.282226562 319.196289062 392 c 1
 270.657226562 369 222.508789062 355 175.794921875 355 c 0
 105.387695312 355 74.3701171875 423.396484375 74.3701171875 492.137695312 c 0
 74.3701171875 691.48828125 288.143554688 833 436.8515625 833 c 0
 553.134765625 833 599.853515625 732.651367188 599.853515625 622.548828125 c 0
 599.853515625 352.352539062 302.461914062 37 69.5439453125 37 c 0
EndSplineSet
EndChar

StartChar: equal
Encoding: 61 61 18
Width: 659
Flags: HW
HStem: 208 161<103.289 435.968> 447 162<119.806 442.545>
LayerCount: 2
Fore
SplineSet
71.91015625 497.01953125 m 0
 71.91015625 595.092773438 160.672851562 609 237.34765625 609 c 0
 368.735351562 609 379.372070312 608.9765625 474.250976562 600.018554688 c 0
 523.047851562 595.71875 627.174804688 595.033203125 627.174804688 548.633789062 c 0
 627.174804688 458.216796875 218.5078125 447 165.374023438 447 c 0
 163.029296875 446.955078125 160.692382812 446.931640625 158.370117188 446.931640625 c 0
 112.500976562 446.931640625 71.91015625 456.188476562 71.91015625 497.01953125 c 0
344.689453125 369.349609375 m 0
 421.905273438 369.349609375 576.82421875 366.750976562 592.24609375 299.60546875 c 1
 590.447265625 217.174804688 231.376953125 208 174.127929688 208 c 0
 113.327148438 208 32 208.754882812 32 266.599609375 c 1
 46.4990234375 346.002929688 135.515625 369.50390625 211.065429688 369.50390625 c 0
 211.84765625 369.50390625 212.62890625 369.501953125 213.408203125 369.49609375 c 0
 235.94921875 369.49609375 259.993164062 369 268.471679688 369 c 0
 301.4140625 369 325.04296875 369.349609375 344.689453125 369.349609375 c 0
EndSplineSet
EndChar

StartChar: question
Encoding: 63 63 19
Width: 525
Flags: HW
HStem: 735 98<234.421 304.266>
LayerCount: 2
Fore
SplineSet
270.19140625 735 m 1
 183.626953125 693.8671875 181.84375 578.182617188 163.779296875 476.114257812 c 1
 107.942382812 479.895507812 82.775390625 547.927734375 82.775390625 608.356445312 c 0
 82.775390625 741.306640625 192.18359375 833 298.895507812 833 c 0
 403.665039062 833 492.483398438 771.948242188 492.483398438 669.078125 c 0
 492.483398438 534.084960938 355.671875 460.630859375 345.826171875 388 c 1
 431.567382812 388 l 1
 432.569335938 382.100585938 433.05078125 376.401367188 433.05078125 370.8984375 c 0
 433.05078125 264.196289062 252.247070312 231 185.993164062 231 c 0
 141.75 231 83.0546875 234.295898438 83.0546875 273.940429688 c 1
 148.291015625 399.025390625 305.540039062 505.709960938 305.540039062 673.416992188 c 0
 305.540039062 701.826171875 299.012695312 735 270.19140625 735 c 1
31 47.767578125 m 0
 31 146.708984375 125.107421875 206.638671875 204.171875 207 c 0
 230.140625 207 249.7109375 196.708984375 249.7109375 171.237304688 c 0
 249.7109375 70.0380859375 171.170898438 7.2451171875 80.5732421875 7 c 0
 52.767578125 7 31 20.6162109375 31 47.767578125 c 0
EndSplineSet
EndChar

StartChar: A
Encoding: 65 65 20
Width: 727
Flags: HW
HStem: 156 125<337.797 466.107> 178 103<391.349 466.574> 675 20G<480.841 585.234>
LayerCount: 2
Fore
SplineSet
355.4140625 281 m 2xa0
 466.650390625 281 l 1
 466.525331006 284.671237074 466.480285111 288.731853916 466.480285111 293.156040935 c 0
 466.480285111 304.554601377 466.779296875 318.36651738 466.779296875 334.150390625 c 0
 466.779296875 392.7890625 464.302734375 467.161132812 449.237304688 488.021484375 c 1
 408.858398438 434.000976562 369.771484375 352.549804688 337.98046875 298.684570312 c 0
 330.716796875 286.377929688 348.434570312 281 355.4140625 281 c 2xa0
694.177456942 69.3986058062 m 0
 693.300983818 18.0690948122 614.160880561 3.90687422815 570.274060509 3.90687422815 c 0
 489.339036727 3.90687422815 500.289283592 120.678129284 472.658203125 178 c 1x60
 444.313476562 178 424.38671875 156 390.587890625 156 c 0
 355.692382812 156 322.47265625 159 287.021484375 159 c 0
 251.302734375 159 253.107421875 140.375 243.834960938 125.708984375 c 0
 194.299804688 47.0732421875 155.372070312 4.9921875 69.455078125 4.9921875 c 0
 49.302734375 4.9921875 28 5.79296875 28 23.822265625 c 0
 28 76.8779296875 124.3359375 125.079101562 124.3359375 158.516601562 c 0
 124.3359375 172.6484375 83.9326171875 171.879882812 83.9326171875 197.314453125 c 0
 83.9326171875 246.58984375 156.90234375 289 204.951171875 289 c 0
 215.755859375 289 221.5625 289.76171875 224.0390625 293 c 0
 300.737310275 398.641305743 357.873855505 512.443438565 431.795898438 621.424804688 c 1
 431.795898438 637.485351562 412.353515625 662.594726562 412.353515625 676.635742188 c 0
 412.353515625 693.505635222 460.50434651 695.083557504 491.719889721 695.083557504 c 0
 498.903137075 695.083557504 505.18959098 695 509.786132812 695 c 0
 660.68359375 695 608.463867188 468.9921875 631.336914062 299.31640625 c 0
 642.093042393 219.523047308 694.177456942 132.514738659 694.177456942 69.3986058062 c 0
EndSplineSet
EndChar

StartChar: B
Encoding: 66 66 21
Width: 629
Flags: W
HStem: -11 107<146.789 303.372> 623 89<351.647 429.057>
VStem: 394.046 155.639<201.678 334.425> 436.984 161.603<530.904 614.605>
LayerCount: 2
Fore
SplineSet
28 138.467773438 m 1xe0
 56.6694089358 295.579175607 144.079258692 430.792852727 198.434570312 568.000976562 c 1
 181.397460938 568.000976562 161.53125 555.83203125 148.331054688 555.83203125 c 1
 147.566525392 560.775240381 147.196682905 565.582029293 147.196682905 570.25499266 c 0
 147.196682905 674.297579037 330.535459024 712 423.002929688 712 c 0
 482.079101562 712 598.586914062 690.965820312 598.586914062 609.463867188 c 0xd0
 598.586914062 472.946289062 436.619140625 419.17578125 436.619140625 410.999023438 c 0
 436.619140625 409.29296875 549.684570312 366.1640625 549.684570312 293.831054688 c 0
 549.684570312 143.37109375 384.267578125 -11 168.713867188 -11 c 0
 121.234375 -11 51.0322265625 6.7744140625 51.0322265625 41.3525390625 c 0
 51.0322265625 64.2177734375 81.23828125 77.142578125 84.275390625 95.6220703125 c 1
 84.275390625 101.2421875 l 1
 48.7490234375 102.998046875 28 104.791015625 28 138.467773438 c 1xe0
133.65625 127.029296875 m 1
 156.74192922 105.912352619 201.993311445 96 238.594726562 96 c 0
 314.483398438 96 394.045898438 185.374023438 394.045898438 272.166992188 c 0xe0
 394.045898438 355.904296875 331.9375 354.689453125 273.702148438 379 c 1
 264.330078125 379 l 1
 235.037749888 289.448793675 187.578387793 198.463333771 133.65625 127.029296875 c 1
345.685546875 585.811523438 m 0
 324.268947106 530.576071663 299.347647671 476.782016387 279.87596661 421.106198981 c 1
 279.87596661 414.804949892 287.372588228 412 291.004882812 412 c 0
 354.255859375 412 436.984375 507.34765625 436.984375 566.813476562 c 0xd0
 436.984375 599.748046875 423.037109375 623 385.150390625 623 c 0
 354.642578125 623 354.96484375 611.625 345.685546875 585.811523438 c 0
EndSplineSet
EndChar

StartChar: C
Encoding: 67 67 22
Width: 662
Flags: HW
HStem: -10 116<153.874 321.422> 631 81<427.779 557.005>
VStem: 28 191.139<112.772 271.353> 481.074 150.672<507.296 629.662>
LayerCount: 2
Back
SplineSet
205.578125 -8.2431640625 m 4
 103.750976562 5.849609375 36.65625 102.078125 52.9619140625 221.500976562 c 4
 82.623046875 437.064453125 353.388671875 712 545.009765625 712 c 4
 552.880859375 712 560.388671875 711.490234375 567.5078125 710.489257812 c 4
 629.223632812 701.810546875 663.434570312 656.58203125 652.059570312 578.702148438 c 4
 631.274414062 432.216796875 475.327148438 244 373.430664062 244 c 4
 359.567382812 244 353.393554688 247.372070312 355.86328125 264.291015625 c 5
 358.33984375 282.953125 397.3125 320.084960938 411.734375 346.545898438 c 4
 450.956054688 418.080078125 491.998046875 527.401367188 502.81640625 608.248046875 c 5
 504.696289062 619.8359375 504.10546875 631 489.24609375 631 c 4
 469.232421875 631 448.389648438 605.651367188 437.244140625 594.950195312 c 5
 336.120117188 492.112304688 263.68359375 348.620117188 244.032226562 204.538085938 c 4
 242.001953125 188.580078125 239.555664062 172.280273438 239.498046875 157.48046875 c 4
 239.388671875 129.627929688 249.197265625 106 285.838867188 106 c 4
 398.385742188 106 548.141601562 250 587.009765625 250 c 4
 593.184570312 250 598.452148438 247.068359375 597.06640625 238.754882812 c 5
 592.349609375 204.791015625 546.66796875 131.890625 518.216796875 107.814453125 c 5
 462.9375 58.849609375 299.38671875 -10 231.337890625 -10 c 4
 222.515625 -10 213.920898438 -9.40234375 205.578125 -8.2431640625 c 4
EndSplineSet
Fore
SplineSet
332.825195312 257.793945312 m 1
 387.419696927 345.326081601 478.113971479 488.805821867 481.07421875 616.413085938 c 0
 481.07421875 624.57421875 478.013671875 631 466.740234375 631 c 0
 397.689453125 631 219.138671875 304.732421875 219.138671875 166.609375 c 0
 219.138671875 129.522460938 232.01171875 106 263.333007812 106 c 0
 375.879882812 106 525.635742188 250 564.50390625 250 c 1
 565.534166976 244.275935442 566.032347101 238.551416227 566.032347101 232.837599984 c 0
 566.032347101 108.901001362 331.645625286 -10 208.83203125 -10 c 0
 98.916015625 -10 28 76.5791015625 28 185.857421875 c 0
 28 430.47265625 323.24609375 712 522.50390625 712 c 0
 591.505859375 712 631.74609375 674.630859375 631.74609375 607.328125 c 0
 631.74609375 445.8125 452.474609375 244 350.924804688 244 c 0
 339.05859375 244 332.825195312 246.470703125 332.825195312 257.793945312 c 1
EndSplineSet
EndChar

StartChar: D
Encoding: 68 68 23
Width: 719
Flags: HW
HStem: 584 111<403.943 462.947>
LayerCount: 2
Fore
SplineSet
427.433284467 594.291009294 m 1
 291.952233765 498.279863486 303.638582296 224.310138585 198.134765625 83.484375 c 1
 198.134765625 71.1904296875 205.267578125 75.9150390625 218.633789062 75.9150390625 c 0
 400.11328125 75.9150390625 514.1171875 234.666992188 514.1171875 413.31640625 c 0
 514.1171875 483.978372756 468.306261857 594.291009294 427.433284467 594.291009294 c 1
28 65.7119140625 m 1
 100.179767551 229.35241067 150.737107329 419.278971464 247.692382812 561.938476562 c 1
 247.692382812 571 l 1
 204.314453125 571 158.875976562 540 117.438476562 540 c 1
 116.67504968 545.470141072 116.304554759 550.752042911 116.304554759 555.851955725 c 0
 116.304554759 675.562716335 320.442216361 695 438.53125 695 c 0
 594.984375 695 688.580078125 631.603515625 688.580078125 488.317382812 c 0
 688.580078125 211.263671875 451.020507812 4 202.151367188 4 c 0
 135.500976562 4 28 13.146484375 28 65.7119140625 c 1
EndSplineSet
EndChar

StartChar: E
Encoding: 69 69 24
Width: 664
Flags: HW
HStem: -12 119<215.25 324.412> 233 129<268.129 473.485> 397 316<395.222 489.707>
LayerCount: 2
Fore
SplineSet
393.364363585 406.467391943 m 1
 433.000763253 460.806943041 497.848778986 533.910471675 507.671408829 615.51981948 c 1
 507.671408829 627.867651467 504.434376688 639.260157583 496.499023438 648.985351562 c 1
 403.251953125 642.379882812 268.12890625 457.663085938 268.12890625 362 c 1
 536.4140625 362 l 2
 548.875 362 558.595703125 354.565429688 558.595703125 344.706054688 c 0
 558.595703125 316.674804688 465.604492188 233 415.109375 233 c 2
 245.741210938 233 l 2
 237.470025948 233 236.190299786 221.249617721 236.190299786 210.592131554 c 0
 236.190299786 205.816465515 236.447265625 201.260250304 236.447265625 198.079101562 c 0
 236.447265625 154.681640625 252.392578125 107 293.436523438 107 c 0
 387.063476562 107 478.755859375 229 562.4140625 229 c 1
 563.460915812 225.043438719 563.947623854 220.715679683 563.947623854 216.110888883 c 0
 560.288238289 67.0312590935 339.97283724 4.59562585089 220.43359375 -12 c 1
 108.905273438 -12 28 67.2177734375 28 178.1015625 c 0
 28 403.809570312 329.280273438 713 514.4140625 713 c 0
 581.081054688 713 633.6640625 670.288085938 633.6640625 605.083984375 c 0
 633.6640625 489.578125 493.481445312 399.7421875 403.428710938 397 c 1
 396.288019295 398.779930181 393.364363585 402.091968693 393.364363585 406.467391943 c 1
EndSplineSet
EndChar

StartChar: F
Encoding: 70 70 25
Width: 560
Flags: HW
HStem: 237 122<319.204 429.063> 551.932 135.068<393.244 494.281> 676 20G<279.272 311.673>
LayerCount: 2
Fore
SplineSet
150.116719341 577.370090868 m 1
 160.100289423 618.230172413 219.22249111 696.006334507 288.263181728 696.006334507 c 0
 288.622453368 696.006334507 288.981993592 696.004228392 289.341796875 696 c 0xa0
 334.004882812 696 380.267578125 687 428.727539062 687 c 2
 454.727539062 687 l 2
 495.067382812 687 530.450195312 682.830078125 530.450195312 646.026367188 c 0
 530.450195312 561.674804688 437.638671875 581.458007812 393.244140625 551.931640625 c 0
 348.793945312 522.368164062 346.583007812 435.631835938 319.204101562 378.140625 c 1
 319.204101562 371.62109375 l 2
 318.994140625 370.768554688 314.643554688 359 324.020507812 359 c 0
 357.05078125 359 390.774414062 362 422.727539062 362 c 0
 447.6015625 362 472.216796875 361.255859375 472.216796875 339.145507812 c 0
 472.216796875 308.916015625 432.254882812 236.000976562 395.768554688 236.000976562 c 0
 384.086914062 236.000976562 359.37890625 237 333.654296875 237 c 0
 330.541015625 237 327.356445312 237.006835938 324.143554688 237.006835938 c 0
 296.2421875 237.006835938 266.220703125 236.50390625 262.681640625 226.76953125 c 0
 235.41015625 151.951171875 168.999023438 4 83.7275390625 4 c 0
 52.7041015625 4 28 25.7861328125 28 56.3916015625 c 1
 83.1659878308 227.922602733 164.284776734 371.226491365 234.444335938 534.23828125 c 1
 234.444335938 560.172578493 150.116719341 535.352966095 150.116719341 577.370090868 c 1
EndSplineSet
EndChar

StartChar: G
Encoding: 71 71 26
Width: 643
Flags: HW
HStem: -152 79<195.097 263.505> 32.3418 19.6582<142.312 152.772> 632 80<433.046 512.651>
LayerCount: 2
Fore
SplineSet
577.033203125 369.358398438 m 1
 504.060546875 170.6953125 430.969726562 -152 197.639648438 -152 c 4
 144.614257812 -152 69.6611328125 -118.701171875 69.6611328125 -75.900390625 c 0
 69.6611328125 -35.1904296875 154.874023438 11 172.373046875 11 c 0
 195.302734375 11 212.6875 -73 247.201171875 -73 c 1
 264.569335938 -65.3955078125 334.015625 94.0517578125 315.2265625 114.38671875 c 1
 248.224609375 114.38671875 208.556640625 32.341796875 147.079101562 32.341796875 c 0
 63.3359375 32.341796875 28 103.703125 28 185.5625 c 0
 28 434.045898438 311.904296875 712 508.079101562 712 c 0
 569.165039062 712 612.567382812 689.495117188 612.567382812 630.3671875 c 0
 612.567382812 527.3515625 519.649414062 437 433.78515625 437 c 0
 429.754882812 437 428.190429688 439.334960938 428.190429688 442.991210938 c 0
 428.190429688 491.737304688 481.086914062 492 481.086914062 610.458007812 c 0
 481.086914062 623.44921875 477.685546875 632 468.76953125 632 c 0
 383.88671875 632 212.642578125 368.7578125 212.642578125 235.8828125 c 0
 212.642578125 202.403320312 223.077148438 164.03125 262.75 164.03125 c 1
 363.438476562 213.217773438 397.034179688 382.821289062 559.079101562 382.821289062 c 0
 572.42578125 382.821289062 577.033203125 379.092773438 577.033203125 369.358398438 c 1
EndSplineSet
EndChar

StartChar: H
Encoding: 72 72 27
Width: 818
Flags: W
HStem: 231.937 116.418<328.899 437.159> 235 125<328.899 427.669> 677 31G<315.627 393.547 646.509 745.993>
VStem: 60.2637 268.634<233.476 424.503>
LayerCount: 2
Fore
SplineSet
445.987947739 348.354671975 m 0xb0
 594.983922756 349.384652953 564.302789733 697 728.715820312 697 c 0
 763.270507812 697 788.4609375 678.78515625 788.4609375 644.049804688 c 0
 788.4609375 542.369140625 673.637695312 464.928710938 673.637695312 371.173828125 c 0
 673.637695312 353.513671875 726.979492188 357.891601562 726.979492188 329.450195312 c 1
 717.785351944 284.244426193 649.330928726 226.811194441 610.752929688 220.141601562 c 1
 562.407226562 130.5 527.471679688 -7 405.762695312 -7 c 0
 377.899414062 -7 367.8125 8.1943359375 367.8125 30.7900390625 c 0
 367.8125 88.8359375 434.376953125 195.727539062 437.159179688 219.365234375 c 1
 437.159179688 219.682617188 l 2
 437.411132812 219.643554688 438.915039062 231.936523438 429.915039062 231.936523438 c 0xb0
 382.036132812 231.936523438 331.392578125 235 283.119140625 235 c 1
 218.41254265 164.440003591 207.106726977 -5 101.715820312 -5 c 0
 62.1083984375 -5 28 7.943359375 28 46.44140625 c 0
 28.8408203125 102.833984375 87.873046875 154.422851562 87.873046875 208.36328125 c 0
 87.873046875 228.16796875 60.263671875 221.439453125 60.263671875 245.512695312 c 0
 60.263671875 320.650885176 144.019322043 341.848536349 165.896484375 401.573242188 c 0
 196.11348714 484.065732487 257.870117188 708 373.384765625 708 c 0
 413.708984375 708 438.446289062 692.7578125 438.446289062 652.43359375 c 0
 438.446289062 539.741210938 328.897460938 479.0703125 328.897460938 369.935546875 c 0
 328.897460938 363.870117188 331.196289062 360 337.083007812 360 c 0x70
 372.013395661 360 411.012724894 348.354671975 445.987947739 348.354671975 c 0xb0
EndSplineSet
EndChar

StartChar: I
Encoding: 73 73 28
Width: 632
Flags: W
HStem: -10 21G<145.963 228.229> 594.469 94.5308<294.721 400.866>
LayerCount: 2
Fore
SplineSet
96.615234375 261 m 1
 154.801183464 233.876691869 147.581088032 118.19057534 194.23046875 83 c 1
 273.826207323 208.802697267 358.166577402 436.788777252 400.866210938 594 c 1
 396.949552775 594.317992768 393.032310836 594.469167255 389.115053573 594.469167255 c 0
 313.405875062 594.469167255 237.690972641 538 166.07421875 538 c 0
 152.206054688 538 143.072265625 553.926757812 143.072265625 569.944335938 c 0
 143.072265625 639.073242188 233.212890625 689 304.9140625 689 c 2
 437.927734375 689 l 2
 482.857421875 689 601.73828125 670.19921875 601.73828125 646.713867188 c 1
 549.269260115 444.447896576 452.077614476 285.366558166 355.193359375 120.692382812 c 0
 312.159221512 47.5472555954 267.083007812 -10 189.375976562 -10 c 0
 102.55078125 -10 28 41.6669921875 28 126.559570312 c 0
 28 171.474609375 62.11328125 261 96.615234375 261 c 1
EndSplineSet
EndChar

StartChar: J
Encoding: 74 74 29
Width: 516
Flags: HW
HStem: -50 75<70.4207 131.628>
LayerCount: 2
Fore
SplineSet
131.264648438 588.334960938 m 0
 131.264648438 673.563476562 214.077148438 704.079101562 317.413085938 704.079101562 c 0
 329.395507812 704.079101562 342.262695312 704 356.138671875 704 c 0
 405.470703125 704 485.94921875 695.264648438 485.94921875 659.30078125 c 1
 437.067103895 475.625175056 364.506712992 317.660980064 283.122070312 156.16796875 c 0
 246.536099878 83.5697691057 177.768554688 -50 97.6884765625 -50 c 0
 50.517578125 -50 28 26.916015625 28 83.5927734375 c 0
 28 165.049804688 68.59765625 271 143.688476562 271 c 0
 150.280273438 271 152.693359375 265.185546875 152.693359375 256.604492188 c 0
 152.693359375 175.299804688 112.563476562 117.944335938 105.169921875 36.8681640625 c 0
 105.169921875 30.427734375 107.020507812 25 113.688476562 25 c 1
 206.434371468 188.162906718 273.176558981 410.257376845 300.68359375 597.430664062 c 1
 258.998046875 597.430664062 213.48828125 561.907226562 168.737304688 561.907226562 c 0
 148.088867188 561.907226562 131.264648438 568.603515625 131.264648438 588.334960938 c 0
EndSplineSet
EndChar

StartChar: K
Encoding: 75 75 30
Width: 781
Flags: HW
HStem: 316 398<306.293 415.319> 679.819 20G<668.126 723.508>
LayerCount: 2
Fore
SplineSet
315.952148438 316 m 1
 229.051308295 224.98390671 209.610519506 28.7520245781 54.8857421875 10 c 1
 35.0283203125 10 28 21.5517578125 28 38.19140625 c 1
 90.4775124235 228.111169794 164.875110685 391.960540579 245.66796875 566.8046875 c 0
 286.771686561 655.757407431 316.987304688 714 412.275390625 714 c 0x80
 439.069335938 714 461.916992188 709.342773438 461.916992188 684.564453125 c 0
 461.916992188 607.365234375 380.709960938 515.802734375 360.31640625 437.181640625 c 1
 457.188009281 509.495683513 596.553413189 699.819652028 721.606686924 699.819652028 c 0
 740.521674382 699.798226732 751.26650953 696.697889917 751.26650953 678.926482804 c 0
 751.26650953 570.114801215 532.585573179 509.667443911 471.093781263 422.577131627 c 1
 471.093781263 417.090853134 471.770507812 411.079753851 471.770507812 404.735351562 c 0
 472.042895167 256.448882743 539.980714636 132.155266886 628.591796875 61.314453125 c 1
 628.591796875 25.84765625 524.44921875 -13 490.90625 -13 c 0
 434.611328125 -13 387.971679688 15.9033203125 357.291992188 61.173828125 c 0x40
 314.935546875 122.28515625 330.095703125 316 315.952148438 316 c 1
EndSplineSet
EndChar

StartChar: L
Encoding: 76 76 31
Width: 468
Flags: HW
HStem: 6 114<199.596 264.799> 677 20G<374.772 397.189>
LayerCount: 2
Fore
SplineSet
353.160254028 122.566427856 m 1
 328.24399316 33.3031115444 237.183503035 6 113.53125 6 c 0
 72.4189453125 6 28 16.0341796875 28 53.349609375 c 1
 79.2375763028 171.090157593 171.390566132 700.149744811 367.103613694 700.149744811 c 0
 375.710754447 700.149744811 384.518190398 699.126492251 393.53125 697 c 1
 420.35546875 697 437.75390625 696.768554688 437.75390625 668.97265625 c 0
 437.75390625 471.963499507 199.383789062 328.005844772 199.383789062 135.788085938 c 0
 199.383789062 121.930664062 211.456054688 116.215820312 218.856445312 117.822265625 c 2
 344.04296875 144.999023438 l 1
 350.380829888 138.530281747 353.160254028 130.880771817 353.160254028 122.566427856 c 1
EndSplineSet
EndChar

StartChar: M
Encoding: 77 77 32
Width: 1072
Flags: HW
HStem: 678 20G<482.01 534.062 966.351 996.125>
VStem: 417.935 176.633<454.952 649.641> 430.11 161.935<266.435 441> 787.897 185.125<181.793 399.677> 797.864 175.158<209.417 408.342>
LayerCount: 2
Fore
SplineSet
1016.89355469 679.067382812 m 0
 1016.89355469 564.356824298 979.525042763 420.610926058 979.525042763 295.30428478 c 0
 979.525042763 216.983933719 994.123497117 145.867098056 1041.56933594 93.5458984375 c 1
 1041.56933594 65.2744140625 956.510742188 9 925.28515625 9 c 0
 829.435546875 9 787.897460938 117.559570312 787.897460938 207.337890625 c 0xb0
 787.897460938 251.641601562 793.735351562 298.884765625 797.864257812 346.563476562 c 1
 797.864257812 347 l 2
 797.864257812 362.24609375 800.431640625 378.728515625 800.431640625 391.618164062 c 0
 800.431640625 397.721679688 792.807617188 407.234375 791.124023438 411.213867188 c 1
 580.616210938 58.921875 l 1
 558.57421875 32.1240234375 542.555664062 4 513.559570312 4 c 1
 436.813916896 45.1023098889 426.891002138 182.516939684 425.59765625 286.049804688 c 0
 425.59765625 319.682617188 430.110351562 351.21875 430.110351562 384.359375 c 0xa8
 430.110351562 403.251953125 424.708007812 421.577148438 424.708007812 436 c 2
 424.708007812 441 l 1
 328.762695312 355.046875 244.674804688 8.0009765625 52.28515625 6 c 0
 40.64453125 6 28 11.42578125 28 22.583984375 c 1
 175.088414499 210.614103038 298.97667416 418.400794643 417.934570312 628.498046875 c 1
 417.934570312 647.8828125 398.01171875 665.313476562 398.01171875 668.327148438 c 0
 398.01171875 691.770507812 473.166992188 698 490.852539062 698 c 0xc0
 577.270507812 698 594.567382812 614.586914062 594.567382812 532.881835938 c 0xc0
 594.567382812 490.8046875 592.044921875 428.170898438 592.044921875 374.5 c 0
 592.044921875 320.258789062 591.93359375 264 612.283203125 264 c 1
 695.997082102 385.896786297 755.905085607 539.024957875 848.935546875 653.650390625 c 0
 881.833630745 694.185039694 945.416992188 698 987.28515625 698 c 0
 1004.96582031 698 1016.89355469 696.788085938 1016.89355469 679.067382812 c 0
EndSplineSet
EndChar

StartChar: N
Encoding: 78 78 33
Width: 894
Flags: HW
HStem: -10 21G<40.7769 100.586> 8 306.039<470.146 604.978> 682 20G<766.687 853.615>
LayerCount: 2
Back
SplineSet
42.0244140625 -10 m 4
 30.4682662768 -10 23.4694906897 -4.62209512157 23.4694906897 6.86766471452 c 4
 23.4694906897 8.62557843539 23.6333213864 10.5265613893 23.9697265625 12.5732421875 c 4
 25.72265625 25.904296875 35.650390625 36.0673828125 44.2060546875 49.08203125 c 5
 102.49609375 140.809570312 146.438449296 235.163085938 193.654744907 330.506835938 c 5
 237.891749027 423.765625 286.046396599 514.958007812 330.37848449 608.416015625 c 4
 330.732887637 609.163085938 l 5
 330.837575829 609.98828125 l 4
 334.411185409 638.238994219 301.232490264 645.125358513 301.232490264 658.401074671 c 4
 301.232490264 686.717478076 411.224639772 708 438.079583754 708 c 4
 508.24180232 708 511.845381196 668.630859375 518.771129404 617.3203125 c 4
 518.8325977 616.869140625 l 5
 518.972822252 616.436523438 l 4
 544.923968636 536.297851562 530.008302339 399.564453125 577.415725934 316.490234375 c 4
 578.640289651 314.345703125 l 5
 581.059643379 314.0390625 l 4
 591.181743 312.751953125 595.626669183 318.272460938 599.529906004 324.2265625 c 4
 599.761372557 324.579101562 l 5
 599.930410373 324.965820312 l 4
 661.076958654 464.600585938 704.99701687 702 843.024414062 702 c 4
 855.14436447 702 859.263632565 696.285859653 859.263632565 684.395277555 c 4
 859.263632565 680.493807303 858.820156254 675.927387467 858.0703125 670.6796875 c 5
 853.205078125 633.701171875 836.537109375 600.2109375 820.486328125 565.099609375 c 4
 758.547851562 431.232421875 697.222237818 310.166992188 635.227619135 171.088867188 c 5
 627.427868588 154.09375 574.236662479 8 517.742495882 8 c 4
 472.086918734 8 422.716351423 177.151367188 412.35414127 218.2421875 c 5
 401.702838035 274.364257812 393.559249205 309.840820312 386.912989657 341.64453125 c 5
 385.9496662 360.229492188 379.425382803 450 364.317628079 450 c 4
 343.453943664 450 267.179471375 238.801757812 248.711129634 196.5703125 c 4
 206.224051078 100.034179688 150.087168953 -10 42.0244140625 -10 c 4
EndSplineSet
Fore
SplineSet
28 6.8671875 m 1
 137.325076258 208.069920606 245.998724368 404.996725552 337.497707089 618.423583003 c 1
 337.497707089 637.873133207 305.762695312 646.632076316 305.762695312 658.401367188 c 0
 305.762695312 686.612304688 414.940429688 708.000976562 442.307617188 708.000976562 c 0
 609.975585938 708.000976562 549.84765625 314.0390625 585.58984375 314.0390625 c 0
 624.366210938 314.0390625 685.818359375 702 847.5546875 702 c 0
 859.674804688 702 863.793945312 696.286132812 863.793945312 684.395507812 c 0
 863.793945312 639.44921875 842.125976562 603.494140625 825.016601562 565.099609375 c 0
 633.897460938 136.200195312 580.088867188 8 522.2734375 8 c 0x60
 419.166304506 8 378.753503918 450.165307258 369.156482762 450.165307258 c 0
 278.446994867 450.165307258 235.826512649 -1.99433819713 46.5546875 -10 c 0xa0
 34.9990234375 -10 28 -4.6220703125 28 6.8671875 c 1
EndSplineSet
EndChar

StartChar: O
Encoding: 79 79 34
Width: 671
Flags: W
HStem: -10 90<188.109 329.179> 629.431 82.5693<430.815 525.891>
VStem: 28 186.552<121.053 306.261>
LayerCount: 2
Fore
SplineSet
640.690429688 509.861328125 m 0
 637.523820903 253.421068685 495.670409416 37.4221017622 252.780273438 -10 c 1
 126.076171875 -7.6142578125 28 52.525390625 28 181.51953125 c 0
 28 452.046875 310.07421875 706.458007812 535.591796875 712 c 0
 552.845703125 712 574.763671875 709.525390625 574.763671875 696.20703125 c 0
 574.763671875 666.543945312 495.791015625 635.397460938 472.25390625 629.430664062 c 1
 320.431807343 570.287216781 214.552274649 429.048888963 214.552274649 221.389476831 c 0
 214.552274649 219.348743239 214.562500075 217.301594962 214.583007812 215.248046875 c 0
 214.583007812 146.400390625 241.2109375 80 298.552734375 80 c 0
 393.300539644 80 489.166241207 237.670657202 489.206842305 361.352798745 c 0
 489.206842305 415.157041605 454.659448428 462.499235987 454.659448428 507.067899804 c 0
 454.659448428 549.96846037 554.631816578 608.562785986 585.591796875 611 c 0
 588.875976562 611 591.977539062 610.725585938 594.903320312 610.1953125 c 1
 592.883789062 609.247070312 590.591796875 607.48046875 590.591796875 605 c 2
 590.591796875 600 l 1
 590.591796875 600 602.591796875 599.40234375 602.591796875 606 c 2
 602.591796875 608.081054688 l 1
 632.616210938 596.7421875 640.690429688 554.0546875 640.690429688 509.861328125 c 0
594.903320312 615.1953125 m 1
 597.61328125 614.704101562 600.173828125 613.994140625 602.591796875 613.081054688 c 1
 602.591796875 616 l 2
 602.080078125 616 596.034179688 615.725585938 594.903320312 615.1953125 c 1
EndSplineSet
EndChar

StartChar: P
Encoding: 80 80 35
Width: 657
Flags: HW
HStem: -10 21G<40.5437 70.4495> 564 129<366.813 440.262>
LayerCount: 2
Fore
SplineSet
28 22.4052734375 m 1
 86.6883760298 222.680445799 186.616266657 393.664206649 260.750452189 578.877080972 c 1
 260.750452189 586.692504732 258.445552705 593.86496 252.823242188 600 c 1
 241.068359375 600 195.870117188 578 183.74609375 578 c 1
 179.834945827 587.203758898 178.034711177 595.698056179 178.034711177 603.534493937 c 0
 178.034711177 677.845351439 339.915862748 693 398.759765625 693 c 0
 523.604492188 693 627.198242188 643.78515625 627.198242188 518.850585938 c 0
 627.198242188 354.739257812 459.590820312 190.974609375 324.818359375 185 c 0
 307.168945312 185 287.548828125 186.458984375 287.548828125 202.092773438 c 0
 287.548828125 232.162109375 323.034179688 240.625 344.256835938 256.985351562 c 0
 417.939147257 312.418503406 456.602030403 366.154810885 458.463665681 479.272258841 c 0
 458.463665681 514.071416681 448.537426819 564 419.19140625 564 c 1
 357.888042712 484.642214975 343.155695756 400.304937583 294.141601562 290.124023438 c 0
 241.071035895 170.824390639 217.25390625 -10 53.7412109375 -10 c 0
 33.9423828125 -10 28 3.8017578125 28 22.4052734375 c 1
EndSplineSet
EndChar

StartChar: Q
Encoding: 81 81 36
Width: 698
Flags: HW
HStem: 60 48.6221<328.322 422.072> 691 20G<497.466 544.221>
LayerCount: 2
Fore
SplineSet
668.037107089 500.425452544 m 0
 668.037107089 352.610399923 585.817020954 268.6731382 526.681475634 157.831051785 c 1
 526.681475634 130.632296506 626.55859375 115.164847708 626.55859375 101.662109375 c 0
 626.55859375 60.2529296875 587.118164062 -8 535.243164062 -8 c 0
 480.814453125 -8 459.418945312 60 422.072265625 60 c 0
 366.000469649 60 302.530296171 -10.0346732453 234.444218819 -10.0346732453 c 0
 108.56972826 -10.0346732453 28 68.1836926493 28 193.025390625 c 0
 28 461.789523456 269.073630179 711 540.12109375 711 c 0
 565.177734375 711 596.30078125 710.71484375 596.30078125 687.744140625 c 0
 596.30078125 639.989257812 489.708984375 623.265625 459.391601562 611.3125 c 0
 324.6875 554.895507812 220.874023438 411.994140625 220.874023438 250.380859375 c 0
 220.874023438 174.750192486 254.865466363 107.962827821 332.51708539 107.962827821 c 0
 334.684025986 107.962827821 336.884966547 108.014837873 339.120117188 108.120117188 c 0
 355.166015625 108.120117188 383.2421875 111.250976562 383.2421875 133.787109375 c 0
 381.047420977 189.162930653 316.285072526 217.396383448 292.469726562 242.149414062 c 1
 292.469726562 280.4765625 327.880859375 284.069335938 359.633789062 284.069335938 c 0
 412.666992188 284.069335938 443.82421875 248.186523438 475.731445312 223.221679688 c 1
 503.222940331 265.915688692 511.915261057 307.247451088 511.915261057 367.621569871 c 0
 511.915261057 423.920252122 470.419921875 471.13084097 470.419921875 515.333984375 c 0
 470.419921875 572.209960938 551.578125 614.783203125 596.924804688 615.688476562 c 0
 654.497864863 615.688476562 668.037107089 558.490163742 668.037107089 500.425452544 c 0
EndSplineSet
EndChar

StartChar: R
Encoding: 82 82 37
Width: 688
Flags: HW
HStem: 618 88<357.028 473.484>
LayerCount: 2
Fore
SplineSet
658.388671875 513.958984375 m 0
 658.388671875 376.519629519 547.890636084 328.026012599 466.293945312 270.123046875 c 1
 466.293945312 194.814453125 618.073242188 196.935546875 618.073242188 131.552734375 c 0
 618.073242188 65.1669921875 548.501953125 -15 482.047851562 -15 c 0
 360.788085938 -15 306.971679688 209.36328125 306.971679688 271.197265625 c 0
 307.525390625 312.900390625 381.46484375 319.116210938 412.12109375 349.987304688 c 0
 458.490234375 396.680664062 493.137695312 452.8828125 493.137695312 526.041992188 c 0
 493.137695312 570.659179688 475.50390625 618 431.346679688 618 c 1
 366.829348774 525.225893214 347.639752765 395.779799862 291.44921875 296.243164062 c 1
 258.905003754 214.765355158 211.28377654 11.1346949573 63.6044921875 10 c 0
 42.0810546875 10 28 22.779296875 28 45.986328125 c 1
 75.976313994 243.581606584 182.829735838 406.660984712 255.799804688 584.338867188 c 1
 255.799804688 584.338867188 260.86328125 599 249.9921875 599 c 0
 234.126953125 599 219.318359375 593 208.06640625 593 c 0
 194.522460938 593 187.962890625 598.662109375 187.962890625 610.681640625 c 0
 187.962890625 705.309869101 325.160619267 706.571569914 404.02106101 706.571569914 c 0
 406.181605399 706.571569914 408.298361879 706.570622882 410.367309428 706.570622882 c 0
 546.861649414 706.570622882 658.388671875 633.075741857 658.388671875 513.958984375 c 0
EndSplineSet
EndChar

StartChar: S
Encoding: 83 83 38
Width: 559
Flags: HW
HStem: -10 85<202.658 267.603> 634 78<349.291 407.824>
LayerCount: 2
Fore
SplineSet
529.19140625 613.240234375 m 0
 528.810169449 529.725554421 470.285756738 473.783113081 405.6875 440 c 1
 397.827148438 440 396.08984375 440.75 396.08984375 446.935546875 c 0
 396.08984375 479.874023438 410.3046875 508.349609375 410.334960938 546.979492188 c 0
 410.334960938 583.451171875 403.75390625 634 372.94140625 634 c 0
 343.533365895 634 322.219720568 567.170491718 322.219720568 527.254982336 c 0
 322.219720568 412.906565527 444.76171875 374.679625117 444.76171875 251.010742188 c 0
 444.76171875 114.86328125 329.159179688 -10 216.915039062 -10 c 0
 132.719726562 -9.529296875 28 51.1826171875 28 141.319335938 c 0
 28 193.21484375 103.919921875 237 144.553710938 237 c 0
 210.759765625 237 154.473632812 75 235.21484375 75 c 0
 275.291015625 75 284.021484375 122.44140625 284.021484375 161.194335938 c 0
 284.021484375 287.44921875 139.62109375 333.247070312 139.62109375 466.006835938 c 0
 139.62109375 618.426757812 291.4921875 712 402.797851562 712 c 0
 474.376953125 712 529.19140625 683.108398438 529.19140625 613.240234375 c 0
EndSplineSet
EndChar

StartChar: T
Encoding: 84 84 39
Width: 524
Flags: HW
HStem: 541.791 141.562<379.384 450.733>
VStem: 235.132 143.893<476.425 530.967>
LayerCount: 2
Fore
SplineSet
28 30.5498046875 m 0
 28 228.273293831 233.802608139 345.824290424 235.131835938 525 c 0
 235.131835938 527.5859375 232.96875 533 227.470703125 533 c 0
 196.552734375 533 164.12109375 525 131.993164062 525 c 0
 98.7216796875 525 70.365234375 530.46875 70.365234375 562.0390625 c 0
 70.365234375 626.401367188 150.629882812 691 229.385742188 691 c 1
 256.602744175 685.343130744 289.354999806 684.85262717 322.494736231 684.85262717 c 0
 329.447532866 684.85262717 336.417385263 684.874217691 343.356754338 684.874217691 c 0
 411.064369564 684.874217691 475.869985201 682.818808984 493.616210938 638.598632812 c 1
 493.616210938 557.887695312 437.938476562 559.14453125 379.383789062 541.791015625 c 1
 379.71352426 537.681549667 379.869931501 533.72411585 379.869931501 529.898530799 c 0
 353.963337146 413.751240445 296.285851979 309.577173852 264.147460938 196.708984375 c 0
 233.420669742 88.7982527437 196.80078125 -12 75.9931640625 -12 c 0
 52.6650390625 -12 28 6.6787109375 28 30.5498046875 c 0
EndSplineSet
EndChar

StartChar: U
Encoding: 85 85 40
Width: 651
Flags: HW
HStem: 9 189<167.347 246.019> 675 20G<306.068 355.853>
VStem: 384.221 176.696<41.8884 220.914>
LayerCount: 2
Fore
SplineSet
560.452278087 182.384837293 m 0
 560.452278087 144.726131177 566.294616088 109.115029521 566.294616088 73.9574982901 c 0
 566.294616088 20.3806356074 497.388599061 6 460.071289062 6 c 0
 407.3984375 6 380.658203125 76.6865234375 380.658203125 137.787109375 c 0
 380.658203125 162.705078125 382.973632812 188.487304688 384.21484375 212.737304688 c 1
 384.21484375 212.868164062 l 1
 384.221679688 213 l 2
 384.221679688 220.201171875 376.354492188 221 374.497070312 221 c 1
 305.1771866 137.52041854 231.155528262 8.99061664923 120.553688313 8.99061664923 c 0
 120.0086869 8.99061664923 119.462797275 8.99373750998 118.916015625 9 c 0
 57.0908203125 9 28 58.0634765625 28 116.903320312 c 0
 28 276.327148438 135.768554688 458.619140625 203.763671875 595.676757812 c 0
 246.325195312 680.228515625 258.060546875 695 354.076171875 695 c 0
 377.923828125 695 391.87109375 685.5078125 391.87109375 662.790039062 c 1
 358.99146411 504.579925793 224.963253188 386.546383851 220.040039062 211.935546875 c 0
 220.040039062 203.451171875 222.440429688 198 228.631835938 198 c 1
 365.94731127 244.942803155 435.631069652 568.908884455 584.916015625 600 c 1
 607.517578125 600 620.828125 592.931640625 620.828125 571.188476562 c 0
 620.828125 443.965832853 560.452278087 328.137401523 560.452278087 182.384837293 c 0
EndSplineSet
EndChar

StartChar: V
Encoding: 86 86 41
Width: 587
Flags: HW
HStem: -9 21G<52.616 108.09> 672 20G<216.694 237.437>
LayerCount: 2
Fore
SplineSet
31.6728515625 227.049804688 m 0
 31.6728515625 265.203125 31 303.970703125 31 342.015625 c 0
 31 525.409179688 46.63671875 692 228.659179688 692 c 0
 246.213867188 692 261.473632812 684.666992188 261.473632812 667.112304688 c 0
 261.473632812 512.173828125 192.6953125 379.8203125 192.6953125 216.325195312 c 0
 192.6953125 187.525390625 197.904296875 163 216.099609375 163 c 1
 365.826171875 281.079101562 328.899414062 652.987304688 545.359375 681 c 1
 554.21875 681 556.751953125 672.388671875 556.751953125 661.453125 c 0
 556.751953125 490.471679688 331.583984375 135.548828125 211.051757812 24.8212890625 c 0
 182.458984375 -1.4453125 124.8203125 -9 91.359375 -9 c 0
 42.4833984375 -9 31.6728515625 117.03515625 31.6728515625 227.049804688 c 0
EndSplineSet
EndChar

StartChar: W
Encoding: 87 87 42
Width: 876
Flags: HW
HStem: -11 125<415.288 631.728> -1 207.035<51.551 201.459>
VStem: 355.192 147.729<132.245 285.941> 722.54 123.301<491.454 630.561>
LayerCount: 2
Fore
SplineSet
193.146484375 206.03515625 m 1
 169.674882262 356.794922872 264.130562476 537.664823535 284.0703125 685.477539062 c 1
 284.0703125 696.168945312 279.103515625 704 263.857421875 704 c 1
 4.61317956595 737.427444405 56.8449224965 332.621152915 28 102.751953125 c 1
 28 55.51953125 34.1318359375 -1 68.9697265625 -1 c 0x70
 193.826171875 -1 286.90625 238.609375 349.739257812 288.934570312 c 1
 350.707839181 285.047748432 355.19140625 274.724609375 355.19140625 274.724609375 c 2
 355.19140625 272.934570312 355.19140625 271.145507812 355.19140625 269.35546875 c 0
 353.516601562 238.177734375 349.389648438 196.858398438 349.389648438 155.485351562 c 0
 349.389648438 72.6923828125 375.2109375 -11 455.365234375 -11 c 0
 617.806640625 -11 779.533203125 305.494140625 816.119140625 453.91796875 c 4
 821.380859375 474.44140625 845.840820312 589.446289062 845.840820312 656.547851562 c 4
 845.840820312 685.272460938 841.358398438 705.219726562 828.969726562 705.219726562 c 5
 639.667205849 661.677989922 726.560662367 171.956168826 543.75390625 114 c 1xb0
 525.216796875 114 502.920898438 175.158203125 502.920898438 197.740234375 c 0
 502.920898438 394.920898438 613.044921875 519.784179688 613.044921875 673.357421875 c 0
 613.044921875 690.856445312 603.56640625 696.900390625 582.678710938 696.900390625 c 1
 390.423440326 726.497727984 279.765739591 258.749575797 193.146484375 206.03515625 c 1
EndSplineSet
EndChar

StartChar: X
Encoding: 88 88 43
Width: 713
Flags: HW
HStem: -9 21G<35.7837 64.3677> 691 20G<266.558 338.496>
LayerCount: 2
Fore
SplineSet
683.380859375 667.165039062 m 1
 638.391414994 538.431632308 506.977000355 461.44859633 451.115234375 351.146484375 c 1
 451.115234375 266.861328125 567.890625 225.796875 567.890625 155.036132812 c 0
 567.890625 129.2421875 474.201171875 92.408203125 448.608398438 92.408203125 c 0
 385.93359375 92.408203125 343.9375 142.973632812 326.32421875 207 c 1
 312.919921875 207 l 1
 223.810412799 127.747820681 151.843358313 33.9659439919 45.845703125 -9 c 1
 31.9228515625 -9 28 5.6337890625 28 22.4296875 c 0
 37.7880212713 187.448071681 290.343370424 195.310843333 289.120117188 332.583007812 c 1
 241.600585938 443.162109375 178.97265625 570.739257812 178.97265625 680.928710938 c 4
 178.97265625 699.661132812 256.954101562 711 276.74609375 711 c 0
 400.245117188 711 397.828125 456.46484375 430.055664062 456.46484375 c 1
 488.060540278 486.515345778 563.204383995 690.42674732 668.845703125 674.493164062 c 1
 680.060546875 674.493164062 683.380859375 674.225585938 683.380859375 667.165039062 c 1
EndSplineSet
EndChar

StartChar: Y
Encoding: 89 89 44
Width: 789
Flags: HW
HStem: 692 20G<336.957 369.743>
VStem: 186.738 178.391<238.398 645.792>
LayerCount: 2
Fore
SplineSet
28 -140.313476562 m 1
 42.6369976188 -87.017299741 76.7380142047 -16 141.572265625 -16 c 0
 169.748046875 -16 271.236328125 1.2333984375 271.236328125 37.73828125 c 0
 271.236328125 168.048828125 180.137695312 313.780273438 179.94140625 467.712890625 c 0
 179.94140625 608.388671875 210.447265625 712 350.4453125 712 c 0
 366.192382812 712 370.49609375 696.958007812 370.49609375 676.399414062 c 0
 370.49609375 564.635742188 357.1328125 462.87890625 357.1328125 312.959960938 c 0
 357.1328125 243.358398438 357.87890625 176.822265625 377.885742188 176.822265625 c 1
 517.153892107 215.573092255 530.336189833 678.054321051 746.572265625 685.696289062 c 0
 756.094726562 685.696289062 758.540039062 683.426757812 758.540039062 677.47265625 c 1
 671.114239137 475.092563084 549.58634065 293.308694753 430.765625 116.064453125 c 0
 350.153617677 -4.184057633 245.1015625 -171 73.572265625 -171 c 0
 48.2451171875 -171 28 -162.98046875 28 -140.313476562 c 1
EndSplineSet
EndChar

StartChar: Z
Encoding: 90 90 45
Width: 698
Flags: HW
HStem: -10 183<309.521 399.185> 527 158.059<244.835 347.655> 562 129<315.873 440.024>
LayerCount: 2
Fore
SplineSet
564.788085938 186.696289062 m 1
 545.577792584 55.4673115047 389.422691582 -12.1967581354 267.280940428 -12.1967581354 c 0
 254.588054704 -12.1967581354 242.262486684 -11.4660388484 230.49609375 -10 c 1
 151.98828125 -10 28 11.9150390625 28 73.3720703125 c 1
 39.5336083671 167.97765576 385.461063056 442.178573395 440.0234375 562 c 1
 371.104492188 562 297.1875 527 231.471679688 527 c 0
 199.120117188 527 182.794921875 534.069335938 182.794921875 560.862304688 c 0
 182.794921875 679.366288157 301.235728677 691.902847323 421.505428209 691.902847323 c 0
 453.781019406 691.902847323 486.188322254 691 516.473632812 691 c 0
 535.435546875 691 565.33984375 693.33984375 591.22265625 693.33984375 c 0
 631.037109375 693.33984375 667.969726562 687.802734375 667.969726562 659.6953125 c 1
 552.366341751 493.861722173 394.996640515 357.493403125 309.520507812 173 c 1
 385.875976562 173 467.841796875 203 540.741210938 203 c 0
 556.887695312 203 564.788085938 197.590820312 564.788085938 186.696289062 c 1
EndSplineSet
EndChar

StartChar: bracketleft
Encoding: 91 91 46
Width: 567
Flags: HW
HStem: -3 147<199.73 296.884> 695 137<363.878 513.03>
LayerCount: 2
Fore
SplineSet
363.877929688 695 m 1
 315.32421875 565.7578125 240.53515625 277.098632812 191.349609375 156 c 1
 191.349609375 154.150390625 l 1
 199.729492188 144 l 1
 242.3984375 144 l 2
 289.153320312 144 335.53515625 137.780273438 335.53515625 96.3818359375 c 0
 335.53515625 -1.1787109375 245.438476562 -3 165.125 -3 c 0
 163.915039062 -3 162.703125 -3 161.490234375 -3 c 0
 98.275390625 -3 32 5.962890625 32 59.626953125 c 0
 32 277.5625 142.540039062 428.770507812 172.93359375 665.911132812 c 0
 177.934570312 704.931640625 218.391601562 832 267.44140625 832 c 2
 455.854492188 832 l 2
 500.717773438 832 533.663085938 802.438476562 533.663085938 760.032226562 c 0
 533.663085938 742.041015625 514.524414062 695 500.854492188 695 c 6
 363.877929688 695 l 1
EndSplineSet
EndChar

StartChar: quoteleft
Encoding: 258 8216 47
Width: 229
Flags: HW
HStem: 578 254<112.449 149.73>
VStem: 36.9723 159.093
LayerCount: 2
Fore
SplineSet
36 661.889648438 m 0
 36 726.966796875 100.6875 832 158.022460938 832 c 0
 172.275390625 832 177.009765625 825.94140625 177.009765625 816.654296875 c 0
 177.009765625 798.26953125 158.454101562 767.234375 158.454101562 745.510742188 c 0
 158.454101562 705.008789062 196.474609375 692.737304688 196.474609375 660.544921875 c 0
 195.956054688 620.387695312 128.174804688 578 94.0224609375 578 c 0
 56.8369140625 578 36 622.359375 36 661.889648438 c 0
EndSplineSet
EndChar

StartChar: a
Encoding: 97 97 48
Width: 557
Flags: W
HStem: -10 147<86.8428 256.726> 447 68<319.187 428.83>
VStem: 28 175.315<74.7329 205.013> 339.969 156.358<31.3425 194.996> 365.724 155.438<279.688 445.729>
LayerCount: 2
Fore
SplineSet
203.315429688 186.573242188 m 0xe8
 203.315429688 162.102539062 209 137 232.880859375 137 c 0
 280.5703125 137 350.338867188 232.461914062 382.743164062 266.35546875 c 1
 391.090820312 284.27734375 l 1
 371.872070312 276.026367188 350.947265625 268.233398438 331.067382812 268.233398438 c 0
 319.18359375 268.233398438 317.375976562 265.823242188 318.5078125 273.719726562 c 0
 323.481445312 316.435546875 365.723632812 353.740234375 365.723632812 411.33984375 c 0
 365.723632812 428.694335938 362.198242188 447 348.39453125 447 c 0
 281.525390625 447 203.315429688 253.471679688 203.315429688 186.573242188 c 0xe8
344.881835938 149 m 1
 275.739945945 98.4318294163 199.571354705 -10 116.17578125 -10 c 0
 57.509765625 -10 28 43.697265625 28 105.768554688 c 0
 28 285.857421875 263.9296875 515 398.451171875 515 c 0
 459.208984375 515 521.161132812 489.345703125 521.161132812 428.203125 c 0xe8
 521.161132812 395.200195312 494.245117188 378.782226562 491.03515625 350.981445312 c 1
 491.03515625 344.76171875 l 1
 520.17578125 344.76171875 l 2
 523.061523438 344.76171875 525.54296875 333.317382812 525.54296875 324.129882812 c 0
 525.54296875 259.225691782 496.327213426 187.973793303 496.327213426 113.685828589 c 0
 496.327213426 94.3579671919 497.678482977 75.2648946248 501.096679688 56.18359375 c 1
 472.814995485 22.7932703887 428.45785926 -7 391.712890625 -7 c 0
 349.274414062 -7 339.96875 29.2021484375 339.96875 71.77734375 c 0xf0
 339.96875 97.375 343.33203125 125.276367188 344.881835938 149 c 1
EndSplineSet
EndChar

StartChar: b
Encoding: 98 98 49
Width: 531
Flags: HW
HStem: -10 95<101.647 240.488> 495 20G<389.98 446.498> 512 21G<316.56 351.767> 729 58<373.077 404.779>
LayerCount: 2
Fore
SplineSet
468.892578125 433.298828125 m 0
 468.892578125 230.325195312 327.176757812 -10 155.5078125 -10 c 0xd0
 64.8154296875 -10 28 54.98046875 28 145.009765625 c 0
 28 361.547851562 164.43359375 575.05859375 308.432617188 730.412109375 c 0
 339.490234375 763.918945312 380.844726562 787 419.828125 787 c 0
 471.04296875 787 501.26953125 749.087890625 501.26953125 696.674804688 c 0
 500.747070312 597.796875 389.336914062 515.103515625 318.517578125 512 c 0xb0
 313.639648438 512 311.747070312 514.0078125 311.747070312 517.146484375 c 0
 311.579545265 518.97786179 311.498246282 520.803473751 311.498246282 522.623673905 c 0
 311.498246282 582.691868449 400.037524349 636.866292545 400.037524349 697.856922135 c 0
 400.037524349 708.028707256 397.574866383 718.390080356 391.828125 729 c 1
 292.9375 620.637695312 183.928710938 341.38671875 183.928710938 167.307617188 c 0
 183.928710938 133.4453125 189.806640625 85 220.711914062 85 c 0
 276.209960938 85 298.028320312 181.275390625 303.909179688 225.26171875 c 1
 279.06640625 225.26171875 261.543945312 230.787109375 261.543945312 256.563476562 c 0
 261.543945312 352.408203125 357.112304688 515 419.828125 515 c 0
 458.087890625 515 468.892578125 476.46875 468.892578125 433.298828125 c 0
EndSplineSet
EndChar

StartChar: c
Encoding: 99 99 50
Width: 418
Flags: HW
HStem: -10 119<125.376 232.371> 435 79<260.35 322.868>
LayerCount: 2
Fore
SplineSet
285.809570312 435 m 1
 218.718298847 376.872071098 185.719069875 263.820722935 182.36328125 161.408203125 c 0
 182.36328125 135.405273438 188.225585938 109 211.517578125 109 c 0
 211.734961676 108.9958987 211.952171834 108.99385829 212.169209915 108.99385829 c 0
 255.414240979 108.99385829 291.827614489 190 331.809570312 190 c 1
 332.022140901 187.236292178 332.12628532 184.474625741 332.12628532 181.716943379 c 0
 332.12628532 83.3188044948 199.533074181 -10.0069428756 128.859925799 -10.0069428756 c 0
 128.508266226 -10.0069428756 128.158139743 -10.004632208 127.809570312 -10 c 0
 64.095703125 -10 28 43.8125 28 109.547851562 c 0
 28 288.955077325 170.045689302 451.22282381 320.809570312 514 c 1
 360.767578125 514 388.006835938 488.71484375 388.006835938 447.750976562 c 0
 386.997070312 381.362304688 318.17578125 305.124023438 266.900390625 302 c 0
 259.360351562 302 256.561523438 304.961914062 256.561523438 309.456054688 c 0
 256.561523438 349.276367188 293.724609375 364.645507812 296.5234375 417.439453125 c 0
 296.5234375 427.749023438 293.684570312 435 285.809570312 435 c 1
EndSplineSet
EndChar

StartChar: d
Encoding: 100 100 51
Width: 654
Flags: W
HStem: -10.0011 165.001<71.7458 251.764> 444 71<286.029 324.587> 772 4.3295<564.111 589.302>
VStem: 28 175.311<57.7146 206.353> 329.512 164.666<35.598 143.871>
LayerCount: 2
Fore
SplineSet
305.310546875 444 m 1
 246.82427201 393.665244376 203.310546875 295.062058257 203.310546875 201.420898438 c 0
 203.310546875 181.389648438 207.553710938 155 231.387695312 155 c 0
 272.139798162 155 343.443921027 213.163680331 343.443921027 253.788587445 c 0
 343.443921027 259.235117109 342.162270482 264.366397425 339.353515625 269 c 1
 322.995117188 269 313.5703125 249 305.310546875 249 c 1
 310.999808189 291.053005231 328.993164062 319.802406886 328.993164062 380.1171875 c 0
 328.993164062 411.658203125 324.268554688 444 305.310546875 444 c 1
623.869140626 761.675834691 m 0
 623.869140626 565.350465798 486.798107673 403.061939543 486.58197569 168.684922023 c 0
 486.58197569 132.738190372 494.177744859 99.758270648 494.177744859 67.5829250659 c 0
 494.177744859 36.4873032191 419.388825064 -6 367.560546875 -6 c 0
 335.232421875 -6 329.51171875 32.060546875 329.51171875 70.1123046875 c 0
 329.51171875 87.1868210479 333.054872102 104.341173711 333.054872102 118.49780354 c 0
 333.054872102 129.732627229 330.823342153 139.079441109 322.818359375 145 c 1
 264.523949495 93.1574034969 168.703872078 -10.0010812252 95.1425353791 -10.0010812252 c 0
 48.34899173 -10.0010812252 28 39.8455964265 28 90.568359375 c 0
 28 274.943359375 219.948242188 510.498046875 340.326171875 515 c 0
 359.2109375 515 369.194335938 504.395507812 384.227539062 491 c 1
 425.354487879 527.337458142 453.557715232 776.329499398 563.726362632 776.329499398 c 0
 571.92717157 776.329499398 580.582160525 774.949805261 589.73046875 772 c 1
 600.055650861 772 623.86913085 770.609620211 623.869140626 761.675834691 c 0
EndSplineSet
EndChar

StartChar: e
Encoding: 101 101 52
Width: 471
Flags: W
HStem: -10 109<100.166 255.524> 135.889 24.8877<190.98 221.729> 441 74<287.584 392.447>
VStem: 28 161.154<101.658 176.869> 320.865 119.726<320.185 440.806>
LayerCount: 2
Back
SplineSet
222.669500127 270.797851562 m 5
 212.139939127 243.455078125 205.427309374 212.002929688 201.614070443 183.764648438 c 4
 200.970684451 179.677734375 198.295601802 163 211.956246426 163 c 4
 217.165180653 163 219.084261683 166.469726562 222.860577459 170.46484375 c 4
 282.399166436 233.453125 319.558630589 326.478515625 331.96875 421.29296875 c 4
 332.794921875 427.07421875 333.913085938 441 321.60325035 441 c 4
 290.801030574 441 229.686745916 291.21484375 222.669500127 270.797851562 c 5
127.41796875 -8.90234375 m 4
 66.9072265625 -0.5244140625 30.2080078125 54.27734375 40.9697265625 131.98828125 c 4
 62.76171875 288.509765625 217.631335496 515 380.018554688 515 c 4
 383.603515625 515 387.049804688 514.755859375 390.359375 514.287109375 c 4
 434.938476562 507.807617188 458.286132812 457.8671875 450.065429688 398.901367188 c 4
 436.250976562 295.772460938 319.271553052 129.740234375 233.696600652 129.740234375 c 4
 227.399356404 129.740234375 220.782726857 135.888671875 210.065780841 135.888671875 c 4
 203.974383188 135.888671875 202.711611254 128.673828125 202.606380259 128.005859375 c 5
 198.712833464 101.27734375 227.225817571 99 236.53229903 99 c 4
 296.72258171 99 342.577148438 173 385.018554688 173 c 4
 397.479492188 173 408.51953125 163.418945312 406.080078125 148.782226562 c 5
 403.560546875 131.985351562 378.520507812 114.435546875 364.814453125 102.838867188 c 5
 298.879817097 46.9736328125 220.198417914 -10 144.018554688 -10 c 4
 138.291992188 -10 132.75390625 -9.626953125 127.41796875 -8.90234375 c 4
EndSplineSet
Fore
SplineSet
211.56640625 270.797851562 m 0
 199.97265625 235.83984375 186.5859375 201.059570312 190.961914062 162.166015625 c 0
 191.280273438 159.33984375 196.59765625 160.776367188 199.420898438 160.776367188 c 0
 259.734375 160.776367188 320.865234375 366.5625 320.865234375 421.29296875 c 0
 320.865234375 427.1328125 322.809570312 441 310.5 441 c 0
 279.697265625 441 218.583007812 291.21484375 211.56640625 270.797851562 c 0
395.317382812 152.791992188 m 1
 342.68724069 75.010301349 224.476275639 -10 132.915039062 -10 c 0
 67.416015625 -10 28 37.353515625 28 105.739257812 c 0
 28 282.283203125 200.16796875 515 368.915039062 515 c 0
 415.978515625 515 440.590820312 473.208984375 440.590820312 421.88671875 c 0
 440.590820312 271.28515625 300.668945312 135.888671875 189.961914062 135.888671875 c 5
 189.961914062 135.888671875 189.154296875 132.697265625 189.154296875 128.193359375 c 0
 189.154296875 117.380859375 193.8046875 99 225.428710938 99 c 0
 285.619140625 99 331.473632812 173 373.915039062 173 c 0
 385.198242188 173 395.317382812 165.143554688 395.317382812 152.791992188 c 1
EndSplineSet
EndChar

StartChar: f
Encoding: 102 102 53
Width: 399
Flags: HW
HStem: 519 111<296.956 353.298>
LayerCount: 2
Fore
SplineSet
369.497070312 592.424804688 m 0
 366.506644693 526.315174822 331.04845421 437.032917067 295.844726562 402 c 0
 294.810546875 402 293.006835938 401.698242188 293.006835938 405.797851562 c 0
 293.006835938 439.5859375 309.374023438 469.435546875 312.374023438 504.57421875 c 0
 312.374023438 511.932617188 307.646484375 524.419921875 302.844726562 519 c 0
 266.768554688 478.276367188 237.078125 292.978515625 221.584960938 227.966796875 c 1
 221.584960938 227.592773438 l 2
 221.584960938 225.55859375 221.893554688 217.438476562 228.868164062 217.438476562 c 0
 242.901367188 217.438476562 260.233398438 219.469726562 275.844726562 219.469726562 c 0
 294.439453125 219.469726562 311.24609375 215.375 311.24609375 198.288085938 c 0
 311.24609375 131.946289062 248.056640625 97.55859375 193.984375 97.55859375 c 1
 158.657357186 28.2528224587 184.733179775 -136.268418703 76.8447265625 -153 c 1
 39.0791015625 -153 28 -141.994140625 28 -111.793945312 c 0
 28 -36.4951171875 49.958984375 32.2080078125 66.73046875 98.2021484375 c 0
 100.321289062 230.377929688 216.65234375 630 344.844726562 630 c 0
 363.709960938 630 369.497070312 613.170898438 369.497070312 592.424804688 c 0
EndSplineSet
EndChar

StartChar: g
Encoding: 103 103 54
Width: 574
Flags: W
HStem: 2.18262 147.817<73.7012 238.482>
VStem: 28 187.156<64.0877 199.029> 88.8027 130.07<-182.89 -92.6833> 402.456 141.56<368.202 453.608>
LayerCount: 2
Fore
SplineSet
393.022460938 455 m 1xd0
 300.607071701 398.940295227 229.741213157 290.395275547 215.15625 171.453125 c 1
 215.15625 160.288085938 218.315429688 150 230.897460938 150 c 0
 246.06640625 150 377.036132812 257.631835938 378.517578125 271.448242188 c 1
 378.517578125 277 l 1
 337.649414062 277 l 1
 336.509765625 278.467773438 336.008789062 280.133789062 336.008789062 281.94140625 c 0
 355.520635204 319.015000164 402.455694503 373.154682276 402.455694503 421.253898112 c 0
 402.455694503 432.972533932 399.669730539 444.332620693 393.022460938 455 c 1xd0
203.876953125 -98 m 0
 203.876953125 -96.3330078125 203.876953125 -94.6669921875 203.876953125 -93 c 1
 202.500976562 -93 192.295898438 -95.130859375 192.295898438 -99 c 2
 192.295898438 -104 l 1
 192.295898438 -104 203.876953125 -104.59765625 203.876953125 -98 c 0
533.36328125 292.770507812 m 0
 526.841671013 46.405853915 385.180045088 -177.946969127 160.450195312 -231 c 1
 118.74609375 -231 88.802734375 -196.733398438 88.802734375 -153.751953125 c 0
 88.802734375 -48.3095703125 228.107421875 50.013671875 282.043945312 52 c 0
 282.108398438 51.677734375 282.247070312 50.68359375 282.247070312 50.68359375 c 1
 250.364257812 -9.2890625 226.201171875 -70.0634765625 218.873046875 -140.754882812 c 0xb0
 218.873046875 -148.684570312 221.099609375 -156 229.932617188 -156 c 1
 286.157583052 -90.1266063193 342.475422484 49.5569974797 342.475422484 139.182793678 c 0
 342.475422484 144.469550307 342.279466482 149.582132502 341.875976562 154.495117188 c 1
 281.604492188 104.342773438 166.369140625 2.1826171875 96.900390625 2.1826171875 c 0
 50.501953125 2.1826171875 28 39.9794921875 28 88.3466796875 c 0
 28 305.974609375 278.9296875 517 444.900390625 517 c 0
 498.773412917 517 544.015204496 499.076959635 544.015204496 445.402471849 c 0
 544.015204496 398.676266004 507.22116684 338.976161984 505.71484375 334.619140625 c 1
 505.71484375 318.83203125 533.36328125 320.774414062 533.36328125 292.770507812 c 0
EndSplineSet
EndChar

StartChar: h
Encoding: 104 104 55
Width: 549
Flags: W
HStem: 732 20G<342.64 458.723>
VStem: 284.492 164.515<55.7418 197.926> 412.964 105.543<579.253 692.87>
LayerCount: 2
Fore
SplineSet
518.506835938 649.8125 m 0xa0
 518.506835938 523.902356196 424.579114705 449.643737441 323.490234375 400 c 1
 322.858815503 403.606149946 322.560262979 407.323865412 322.560262979 411.14454456 c 0
 322.560262979 477.62931702 412.963500573 575.292021234 412.963500573 658.807834887 c 0xa0
 412.963500573 663.17222716 412.716615912 667.497985305 412.197043058 671.778640856 c 0
 412.197043058 679.572187578 411.655461389 687.317796368 410.497070312 695 c 1
 322.64233634 587.121584662 239.78654 393.742835646 237.907226562 272 c 1
 290.51953125 272 364.708984375 435 460.497070312 435 c 0
 480.778320312 435 493.19921875 419.470703125 493.19921875 395.545898438 c 0
 493.19921875 322.215820312 449.006835938 259.754882812 449.006835938 173.0859375 c 0
 449.006835938 139.61328125 458.794921875 100.915039062 458.794921875 72.166015625 c 0
 458.794921875 41.123046875 370.96484375 9 343.684570312 9 c 0
 312.457011997 9 284.492276439 46.4128216234 284.492276439 84.4355383661 c 0xc0
 284.492276439 87.7969983011 284.710841282 91.1632250121 285.165039062 94.5087890625 c 2
 298.536132812 192.993164062 l 2
 298.536132812 200.088867188 290.795898438 199 290.795898438 199 c 1
 224.301757812 145.638671875 150.66796875 12 61.4970703125 12 c 0
 35.3134765625 12 28 45.0400390625 28 78.080078125 c 0
 28 266.564453125 254.782226562 752 430.497070312 752 c 0
 486.94921875 752 518.506835938 708.583984375 518.506835938 649.8125 c 0xa0
EndSplineSet
EndChar

StartChar: i
Encoding: 105 105 56
Width: 367
Flags: HW
HStem: 475 20G<169.113 223.922>
VStem: 203.583 133.642<599.069 653.315>
LayerCount: 2
Fore
SplineSet
337.224609375 683.490234375 m 0
 337.224609375 621.352539062 292.373046875 532 234.22265625 532 c 4
 211.911132812 532 203.583007812 546.141601562 203.583007812 568.392578125 c 0
 205.899414062 630.700195312 246.3671875 721 301.22265625 721 c 4
 324.268554688 721 337.224609375 708.833984375 337.224609375 683.490234375 c 0
252.176757812 429.815429688 m 0
 252.176757812 327.041015625 159.805664062 4 79.22265625 4 c 0
 38.9580078125 4 28 50.0693359375 28 95.4248046875 c 0
 28 111.125 29.3134765625 126.739257812 31.177734375 140.327148438 c 0
 40.353515625 208.63671875 132.002929688 495 206.22265625 495 c 0
 241.622070312 495 252.176757812 465.393554688 252.176757812 429.815429688 c 0
EndSplineSet
EndChar

StartChar: j
Encoding: 106 106 57
Width: 382
Flags: HW
VStem: 30.5944 89.6934<-104.435 -27.5489> 225.381 125.304<598.019 653.623>
LayerCount: 2
Fore
SplineSet
224.5859375 569.915039062 m 0
 224.5859375 627.999023438 265.048828125 720 316.638671875 720 c 0
 342.169921875 720 352.01953125 709.560546875 352.01953125 683.561523438 c 0
 349.81640625 621.647460938 312.602539062 532 253.638671875 532 c 0
 233.392578125 532 224.5859375 547.830078125 224.5859375 569.915039062 c 0
28 -65.5615234375 m 0
 28 -7.603515625 52.0810546875 101.53515625 80.5947265625 123.009765625 c 0
 80.6845703125 122.970703125 84.2333984375 118 90.638671875 118 c 0
 105.47265625 118 161.250976562 501 265.638671875 501 c 0
 290.607421875 501 309.615234375 478.768554688 309.615234375 447.912109375 c 0
 309.615234375 278.604492188 203.483398438 92.61328125 120.288085938 -65.021484375 c 0
 105.44140625 -92.373046875 78.705078125 -147 55.638671875 -147 c 0
 33.705078125 -147 28 -104.237304688 28 -65.5615234375 c 0
EndSplineSet
EndChar

StartChar: k
Encoding: 107 107 58
Width: 516
Flags: HW
HStem: 694 57<355.094 400.13>
LayerCount: 2
Fore
SplineSet
374.54296875 694 m 1
 286.797988131 587.399642935 249.897477346 443.39196265 211.620117188 298.334960938 c 1
 211.620117188 297.999023438 l 1
 211.620117188 297.999023438 212.483398438 290.90234375 217.356445312 290.90234375 c 1
 276.447739948 333.077776463 332.439780791 416.61328125 404.54296875 416.61328125 c 0
 442.391998971 416.61328125 457.154555032 394.946128653 457.154555032 356.839922433 c 0
 457.154555032 245.608750106 376.420890309 177.796023182 319.551757812 99.3681640625 c 1
 326.254028662 35.8946928976 387.527387822 -22.7447857999 412.69921875 -67.81640625 c 1
 412.69921875 -85.5849609375 338.661132812 -163.70703125 306.12109375 -163.70703125 c 0
 231.743164062 -163.70703125 191.881835938 -48.5361328125 191.881835938 42.8447265625 c 0
 191.881835938 152.866210938 308.512695312 118.360351562 308.512695312 228.716796875 c 0
 308.512695312 241.357421875 301.506835938 251.540039062 289.05859375 251.540039062 c 1
 190.660937671 229.087454428 177.50244832 60.7594632266 93.54296875 29.1083984375 c 1
 45.658203125 29.1083984375 28 74.5419921875 28 124.325195312 c 0
 28 205.147460938 53.916015625 268.431640625 81.1796875 338.62109375 c 0
 126.407226562 455.056640625 275.930664062 751 397.54296875 751 c 0
 454.026367188 751 485.557617188 710.678710938 485.557617188 652.678710938 c 0
 485.557617188 550.271484375 398.3984375 428.948242188 313.916015625 424 c 0
 304.775390625 424 297.16015625 422.02734375 301.323242188 430.369140625 c 0
 330.369185099 499.209855834 379.653803833 578.523599527 379.653803833 654.008525609 c 0
 379.653803833 667.488262431 378.082161352 680.845901678 374.54296875 694 c 1
EndSplineSet
EndChar

StartChar: l
Encoding: 108 108 59
Width: 526
Flags: W
HStem: 8 128<113.636 243.453> 731 20G<369.083 449.147>
VStem: 28 168.35<96.563 253.148> 390.568 105.438<540.124 654.664>
LayerCount: 2
Fore
SplineSet
247.846679688 246 m 1
 265.953625628 351.471830289 377.698409864 493.280067174 390.568276925 629.110945846 c 0
 390.568276925 638.64586424 388.731372615 647.691919351 384.225585938 656 c 1
 292.958509087 537.380027046 198.336815552 321.537381743 196.349609375 171.725585938 c 0
 196.349609375 153.157226562 201.100585938 136 220.065429688 136 c 0
 294.379905654 137.05232826 331.05411519 226.133167856 381.225585938 262 c 1
 388.958984375 262 391.376953125 257.135742188 391.376953125 248.938476562 c 0
 391.376953125 131.298828125 280.749023438 8 152.049804688 8 c 0
 75.22265625 8 28 57.19140625 28 135.934570312 c 0
 28 230.973632812 68.4755859375 299.594726562 105.723632812 378.81640625 c 0
 154.641601562 482.859375 315.939453125 751 422.225585938 751 c 0
 476.068359375 751 496.005859375 698.993164062 496.005859375 643.337890625 c 0
 496.005859375 471.543979755 389.597183433 310.398116152 247.846679688 246 c 1
EndSplineSet
EndChar

StartChar: m
Encoding: 109 109 60
Width: 768
Flags: HW
HStem: 479 20G<220.221 259.341>
VStem: 500.53 150.29<-45.8288 184.765>
LayerCount: 2
Fore
SplineSet
546.674804688 278 m 1
 458.097075483 176.425120657 359.832776301 8 299.609375 8 c 0
 268.44921875 8 254.265625 32.5576171875 254.265625 68.6376953125 c 0
 254.684570312 134.830078125 295.821289062 176.228515625 303.23828125 234 c 1
 290.4296875 234 l 1
 251.198680812 184.32865689 134.069624288 11 71.056640625 11 c 0
 38.72265625 11 28 47.2734375 28 85.14453125 c 0
 28 179.458984375 85.7021484375 261.86328125 128.579101562 359.036132812 c 0
 153.908203125 414.134765625 193.6328125 499 246.809570312 499 c 0
 271.873046875 499 291.391601562 484.8359375 291.391601562 456.728515625 c 0
 291.391601562 388.0546875 240.176757812 337.424804688 224.321289062 275.338867188 c 1
 224.321289062 275 l 2
 224.321289062 272.4140625 226.529296875 267 232.143554688 267 c 0
 256.431640625 267 392.48046875 502 472.674804688 502 c 0
 502.561523438 502 518.828125 471.633789062 518.828125 435.256835938 c 0
 517.447265625 365.49609375 463.654296875 309.850585938 456.30078125 254 c 1
 458.048398478 253.268784213 459.84641896 252.919086122 461.690164138 252.919086122 c 0
 529.493035587 295.145462187 584.463819991 475.398912731 694.056640625 501 c 1
 726.348632812 501 737.866210938 475.1953125 737.866210938 440.729492188 c 0
 737.866210938 329.345554475 670.819335938 242.387819203 670.819335938 119.879882812 c 0
 670.819335938 96.5632210427 675.944290978 76.42461815 675.944290978 56.3177497262 c 0
 675.944290978 16.6469570552 626.396225784 -0.402620782332 601.208007812 -1 c 0
 542.372070312 -1 520.529296875 62.7841796875 520.529296875 123.61328125 c 0
 520.529296875 176.992129864 542.413273308 219.696122699 554.497070312 269.565429688 c 1
 554.497070312 270 l 2
 554.497070312 275.741210938 549.203125 278 546.674804688 278 c 1
EndSplineSet
EndChar

StartChar: n
Encoding: 110 110 61
Width: 521
Flags: W
HStem: -10 21G<62.2085 122.455>
VStem: 295.645 153.554<27.3057 226.454>
LayerCount: 2
Fore
SplineSet
300.370117188 229 m 1
 222.398429311 166.4056425 165.711860311 37.5549844659 79.1982421875 -10 c 1
 45.21875 -10 28 24.1171875 28 64.306640625 c 0
 28 162.291015625 155.48046875 517 239.115234375 517 c 0
 265.405273438 517 279.315429688 500.21875 279.315429688 466.102539062 c 0
 279.315429688 409.569335938 253.743164062 360.702148438 246.771484375 311.362304688 c 1
 246.771484375 311 l 1
 246.771484375 311 243.583007812 301 252.514648438 301 c 1
 303.578125 351.26953125 375.043945312 459 441.198242188 459 c 0
 478.806640625 459 491.180664062 437.233398438 491.180664062 401.150390625 c 0
 491.180664062 303.806804114 448.863232578 220.652229338 448.863232578 115.622101098 c 0
 448.863232578 112.104758198 448.910691834 108.562881732 449.008789062 104.995117188 c 0
 449.008789062 99.9560546875 449.071289062 94.8984375 449.198242188 89.8125 c 0
 449.198242188 77.0826633773 452.655178419 67.5423088245 452.655178419 57.3597513316 c 0
 452.655178419 28.7625768332 383.595623903 2 363.5390625 2 c 0
 311.552734375 2 295.64453125 61.2998046875 295.64453125 119.424804688 c 0
 295.607264358 121.147119697 295.589224177 122.848740682 295.589224177 124.531118369 c 0
 295.589224177 158.822889074 303.084260027 185.119772429 308.026367188 215.70703125 c 1
 308.026367188 216 l 1
 308.026367188 216 310.485351562 229 300.370117188 229 c 1
EndSplineSet
EndChar

StartChar: o
Encoding: 111 111 62
Width: 531
Flags: W
HStem: -11 21G<153.78 285.14> 474.199 40.8008<333.59 431.873>
VStem: 28 161.49<102.434 253.3> 360.635 139.409<199.751 340.341>
LayerCount: 2
Fore
SplineSet
204.015625 -11 m 0
 103.543733282 -11 28 34.5751953125 28 139.319335938 c 0
 28 344.69140625 224.688476562 511.857421875 377.536132812 515 c 0
 394.073242188 515 432.548828125 513.053710938 432.548828125 500.379882812 c 0
 432.548828125 471.904296875 401.587890625 478.6875 379.682617188 474.19921875 c 0
 269.999023438 451.7265625 189.490234375 306.095703125 189.490234375 177.146484375 c 0
 189.490234375 130.62890625 205.95703125 86.712890625 251.458007812 76.6728515625 c 1
 321.021484375 81.68359375 360.634765625 171.23046875 360.634765625 251.947265625 c 0
 360.634765625 306.038085938 335.55859375 356.758789062 309.78125 386.1953125 c 1
 336.192382812 416.543945312 390.390625 440.616210938 424.430664062 440.616210938 c 0
 479.111328125 440.616210938 500.043945312 377.642578125 500.043945312 316.966796875 c 0
 500.043945312 145.796251967 366.263790849 -11 204.015625 -11 c 0
EndSplineSet
EndChar

StartChar: p
Encoding: 112 112 63
Width: 603
Flags: HW
HStem: -197 21G<49.0399 94.0286> -10 85<248.053 335.576> 487 20G<243.115 310.14 444.782 475.539>
LayerCount: 2
Fore
SplineSet
285.25390625 75 m 1
 391.032302876 90.5850287219 414.689453125 272.550513049 414.689453125 335.090820312 c 0
 414.689453125 350.05859375 412.452148438 364 404.330078125 364 c 1
 339.930664062 293.271484375 241.453125 220.67578125 241.453125 117.063476562 c 0
 241.453125 91.3916015625 267.897460938 75 285.25390625 75 c 1
28 -123.376953125 m 0
 28 18.427417017 182.246256625 489.921738101 297.838867188 507 c 1
 322.205078125 507 329.95703125 492.317382812 329.95703125 472.18359375 c 0
 329.95703125 439.399414062 309.40234375 392.163085938 306.551757812 370.33203125 c 1
 306.551757812 357 l 1
 356.370117188 405.127929688 399.641601562 514.572265625 472.776367188 515 c 0
 545.97265625 515 571.528320312 452.559570312 571.528320312 379.239257812 c 0
 571.528320312 202.557617188 445.759765625 -10 298.806640625 -10 c 0
 265.099609375 -10 243.11328125 4.173828125 227.252929688 35.9833984375 c 1
 227.252929688 36.53515625 l 1
 227.252929688 36.53515625 222.44140625 58 213.614257812 58 c 1
 199.106445312 22.6640625 115.853515625 -197 72.7763671875 -197 c 0
 37.49609375 -197 28 -161.282226562 28 -123.376953125 c 0
EndSplineSet
EndChar

StartChar: q
Encoding: 113 113 64
Width: 563
Flags: HW
HStem: -10 21G<110.418 135.616> 432 83<354.518 400.812>
LayerCount: 2
Fore
SplineSet
400.065429688 432 m 1
 288.871771263 379.372446774 201.812020269 247.895594356 198.431640625 118.22265625 c 0
 198.431640625 113.853515625 204.90625 112 210.279296875 112 c 1
 272.991792179 166.002236909 356.272087381 255.599238946 373.443359375 282.165039062 c 1
 373.443359375 300.08984375 344.09765625 290.22265625 344.09765625 301.2890625 c 0
 344.09765625 325.66796875 393.99609375 380.135742188 400.065429688 426.32421875 c 1
 400.065429688 432 l 1
493.450195312 251.046875 m 1
 451.819647703 135.880116167 381.73017282 -220.096317358 223.472895515 -220.096317358 c 0
 221.973906789 -220.096317358 220.467008009 -220.064380617 218.952148438 -220 c 0
 204.412109375 -220 196.217773438 -206.112304688 196.217773438 -188.551757812 c 0
 196.217773438 -107.360351562 281.424804688 -24.83203125 281.424804688 54.583984375 c 0
 281.424804688 58.72265625 281.424804688 62.861328125 281.424804688 67 c 1
 227.206054688 42.0810546875 176.260742188 -10 112.630859375 -10 c 0
 60.091796875 -10 28 31.9677734375 28 87.6923828125 c 0
 28 288.03323385 202.595713417 515 423.630859375 515 c 0
 483.216240875 515 532.844585152 503.254193989 532.844585152 445.631509574 c 0
 532.844585152 383.752690983 484.788860906 358.620724268 461.255594566 311.791572447 c 1
 461.255594566 295.444948859 493.450195312 281.726422804 493.450195312 267.854492188 c 2
 493.450195312 251.046875 l 1
EndSplineSet
EndChar

StartChar: r
Encoding: 114 114 65
Width: 395
Flags: W
HStem: 366.082 130.918<171.093 247.841>
VStem: 28 138.396<42.382 160.865> 260.725 104.185<317.998 444.679>
LayerCount: 2
Fore
SplineSet
259.103515625 456 m 0
 282.265437385 456 304.071280978 497.011062214 324.523894558 497.011062214 c 0
 324.71722249 497.011062214 324.910429511 497.0073979 325.103515625 497 c 0
 350.65625 497 364.909179688 460.47265625 364.909179688 428.885742188 c 0
 364.909179688 374.998046875 297.36328125 220 249.103515625 220 c 0
 246.940429688 220 244.104492188 226.270507812 244.104492188 233.63671875 c 0
 244.104492188 248.350585938 260.724609375 300.811523438 260.724609375 335.18359375 c 0
 260.724609375 353.116210938 256.791015625 366.08203125 245.124023438 366.08203125 c 0
 217.067382812 366.08203125 181.784179688 110.231445312 166.395507812 68.68359375 c 0
 157.388671875 42.5625 94.5166015625 3 70.103515625 3 c 0
 38.326171875 3 28 28.8388671875 28 61.0673828125 c 0
 28 176.770507812 112.032226562 497 222.103515625 497 c 0
 253.837890625 497 246.098632812 456 259.103515625 456 c 0
EndSplineSet
EndChar

StartChar: s
Encoding: 115 115 66
Width: 429
Flags: W
HStem: -11 58<93.8813 183.244> 453.584 61.416<255.551 339.681>
VStem: 28 106.451<47.106 110.906> 73.0049 138.812<234.311 360.535> 215.551 146.713<133.667 251.207> 293.654 105.731<362.927 453.141>
LayerCount: 2
Fore
SplineSet
211.817382812 330.872070312 m 0xd4
 211.817382812 246.490234375 362.263671875 298.366210938 362.263671875 204.046875 c 0
 362.263671875 95.3974609375 203.370117188 -11 118.181640625 -11 c 0
 69.5810546875 -11 28 3.05859375 28 51.654296875 c 0
 28 111.09375 96.6376953125 171 150.029296875 171 c 0
 156.91015625 171 162.78125 171.404296875 162.78125 168.799804688 c 0
 162.78125 146.1796875 134.451171875 117.096679688 134.451171875 75.9072265625 c 0
 134.451171875 64.962890625 135.8515625 47 150.029296875 47 c 0
 174.6328125 47 215.55078125 100.543945312 215.55078125 138.625 c 0xe8
 215.55078125 216.711914062 73.0048828125 187.614257812 73.0048828125 281.0078125 c 0
 73.0048828125 405.928710938 229.86328125 515 315.181640625 515 c 0
 364.1796875 515 399.385742188 480.350585938 399.385742188 430.541015625 c 0
 399.385742188 377.537109375 340.116210938 291.559570312 293.90234375 291.559570312 c 0
 282.760742188 291.559570312 269.943359375 297.387695312 269.943359375 304.984375 c 0
 269.943359375 341.653320312 293.629882812 374.681640625 293.654296875 418.991210938 c 0
 293.654296875 443.811523438 288.635742188 453.583984375 281.083007812 453.583984375 c 0
 258.140625 453.583984375 211.817382812 363.3828125 211.817382812 330.872070312 c 0xd4
EndSplineSet
EndChar

StartChar: t
Encoding: 116 116 67
Width: 395
Flags: HW
HStem: -10 21G<88.9194 146.468> 681 20G<290.148 335.469 347.06 352.168>
VStem: 28 164.521<67.5227 212.932>
LayerCount: 2
Fore
SplineSet
28 99.3193359375 m 0
 28 195.861328125 77.794921875 270.336914062 104.530273438 353.466796875 c 1
 88.3359375 362.633789062 75.341796875 369.852539062 75.341796875 389.396484375 c 0
 77.5595703125 474.076171875 157.298828125 470.967773438 174.916015625 525.142578125 c 0
 201.091796875 605.639648438 245.236328125 701 335.059570312 701 c 0
 335.877929688 701 336.6875 700.977539062 337.487304688 700.93359375 c 1
 336.646484375 699.909179688 336.059570312 698.8203125 336.059570312 698 c 2
 336.059570312 689.91015625 l 1
 339.137695312 691.44921875 347.059570312 693.819335938 347.059570312 699 c 1
 357.276367188 695.403320312 364.647460938 687.001953125 364.647460938 674.177734375 c 0
 364.647460938 608.846351687 289.782956111 563.749070514 289.782956111 502.51405518 c 0
 289.782956111 486.413662956 348.293945312 495.532621198 348.293945312 469.55859375 c 0
 348.293945312 394.833984375 276.142578125 381.830078125 242.647460938 368.190429688 c 0
 217.728515625 358.04296875 192.521484375 215.84765625 192.521484375 158.032226562 c 0
 192.521484375 81.4931640625 245.717773438 88.94921875 258.630859375 85.53125 c 1
 226.225585938 37.5458984375 173.875976562 -10 119.059570312 -10 c 0
 58.779296875 -10 28 36.158203125 28 99.3193359375 c 0
337.487304688 700.93359375 m 1
 340.890625 700.744140625 344.109375 700.153320312 347.059570312 699.168945312 c 1
 347.059570312 704 l 1
 345.767578125 704 338.8125 702.545898438 337.487304688 700.93359375 c 1
EndSplineSet
EndChar

StartChar: u
Encoding: 117 117 68
Width: 555
Flags: W
HStem: 495 20G<189.758 278.496>
LayerCount: 2
Fore
SplineSet
28 54.048828125 m 0
 28 203.960268321 117.41351058 479.760219561 262.102539062 515 c 1
 294.888671875 515 313.393554688 491.470703125 313.393554688 455.701171875 c 0
 313.393554688 368.493164062 236.04296875 283.255859375 207.360351562 196.1796875 c 0
 203.689453125 185.03515625 212.970703125 179.616210938 220.720703125 179.616210938 c 0
 308.672851562 179.616210938 408.991210938 418.165039062 491.564453125 418.165039062 c 0
 516.384765625 418.165039062 523.723632812 402.455078125 523.723632812 378.071289062 c 0
 523.723632812 260.291015625 498.004882812 144.275390625 476.842773438 24.9853515625 c 0
 471.272460938 -6.4150390625 420.84375 -10 393.947265625 -10 c 0
 336.541015625 -10 314.17578125 21.8505859375 314.17578125 77.19140625 c 0
 314.17578125 97.7421875 320.129882812 129.868164062 323.694335938 143.750976562 c 1
 323.694335938 144 l 2
 323.694335938 148.666015625 320.896484375 152.99609375 319.17578125 156.5703125 c 1
 249.274414062 111.227539062 157.358398438 -12 69.564453125 -12 c 0
 37.35546875 -12 28 19.28125 28 54.048828125 c 0
EndSplineSet
EndChar

StartChar: v
Encoding: 118 118 69
Width: 431
Flags: HW
HStem: -10 224.326<91.0656 202.643> 495 20G<97.6579 165.03 353.6 393.707>
LayerCount: 2
Fore
SplineSet
401.201171875 456.837890625 m 0
 401.201171875 310.840543726 176.281903572 14.5507736887 91.0654296875 -10 c 1
 40.216796875 -10 28 92.9140625 28 181.1484375 c 0
 28 314.055641757 31.6457213285 489.613929977 139.065429688 515 c 1
 181.314116516 515 213.822448593 485.610104027 213.822448593 442.44434649 c 0
 213.822448593 438.605618915 213.565355424 434.657944504 213.03515625 430.612304688 c 2
 186.239257812 226.170898438 l 2
 184.453125 210.510742188 202.642578125 214.326171875 202.642578125 214.326171875 c 1
 202.642578125 214.64453125 l 1
 239.293945312 277.090820312 331.133789062 503.801757812 376.065429688 503.801757812 c 0
 395.94921875 503.801757812 401.201171875 482.196289062 401.201171875 456.837890625 c 0
EndSplineSet
EndChar

StartChar: w
Encoding: 119 119 70
Width: 630
Flags: HW
HStem: 492 10.835G<107.636 166.909 320.303 324.304 360.91 394.288 565.711 586.77>
VStem: 32.2763 123.41<205.53 433.978> 302.629 45.0703<34.9102 49> 324.304 10.7227<506.063 514.931> 338.926 6.82422<19.2339 26.7744> 460.724 137.601<348.458 434.801>
LayerCount: 2
Fore
SplineSet
263.868164062 150.1328125 m 0
 268.41796875 74.8203125 284.825195312 -16.3388671875 357.448242188 -29 c 1
 410.740234375 -29 449.170898438 47.857421875 476.955078125 101.7890625 c 0
 535.317382812 215.265625 600.095703125 338.82421875 600.095703125 470.749023438 c 0
 600.095703125 493.095703125 593.01171875 502.834960938 575.276367188 502.834960938 c 0
 407.946289062 502.834960938 484.473632812 234.778320312 403.262695312 118.732421875 c 1
 392.3125 118.732421875 391.166015625 145.833984375 391.166015625 175.890625 c 0
 391.134765625 179.831054688 391.120117188 183.736328125 391.120117188 187.607421875 c 0
 391.120117188 306.508789062 405.356445312 392.846679688 405.356445312 472.237304688 c 0
 405.356445312 501.1875 397.158203125 512 367.196289062 512 c 0
 268.512695312 512 220.9921875 204.137695312 164.439453125 204.137695312 c 1
 158.053710938 210.629882812 155.783203125 223.80078125 155.783203125 239.780273438 c 0
 155.783203125 282.381835938 171.92578125 344.939453125 169.287109375 354.072265625 c 1
 169.287109375 358.640625 168.737304688 363.125976562 168.737304688 367.784179688 c 0
 168.737304688 402.94140625 180.112304688 433.958984375 181.17578125 467.90625 c 0
 181.17578125 487.966796875 174.327148438 499.862304688 151.767578125 499.862304688 c 0
 63.505859375 499.862304688 37.1806640625 424.267578125 32.2763671875 324.384765625 c 1
 32.2763671875 324.221679688 l 1
 30.7412109375 307.59765625 29 275.166015625 29 237.645507812 c 0
 29 147.403320312 39.0693359375 27.7216796875 86.2763671875 27.7216796875 c 0
 163.038085938 27.7216796875 215.169921875 233.709960938 257.044921875 233.709960938 c 0
 263.915039062 233.709960938 265.643554688 215.137695312 265.643554688 195.42578125 c 0
 265.643554688 175.451171875 263.868164062 154.306640625 263.868164062 150.1328125 c 0
EndSplineSet
EndChar

StartChar: x
Encoding: 120 120 71
Width: 536
Flags: W
HStem: -9.63251 21G<331.067 376.212> 480.74 20G<143.578 154.439 174.282 210.004 438.051 475.173>
LayerCount: 2
Fore
SplineSet
444.47265625 56.28125 m 1
 424.509508168 9.35073948375 392.697257182 -9.632508622 359.72627714 -9.632508622 c 0
 302.406820231 -9.632508622 241.585313515 47.7409385879 233.431640625 115.388671875 c 1
 193.649414062 82.7060546875 125.19140625 -1.7998046875 77.015625 -1.8447265625 c 0
 46.2421875 -1.8447265625 28 19.0947265625 28 50.6669921875 c 0
 28 157.02037157 165.72169521 175.190328284 196.142484621 264.215906985 c 1
 185.023264775 354.678691222 144.583978168 415.755758721 95.8876953125 478.486328125 c 1
 95.8876953125 499.87109375 133.84375 500.740234375 153.311523438 500.740234375 c 0
 155.567382812 500.740234375 157.661132812 500.728515625 159.533203125 500.728515625 c 0
 165.646385351 501.901611342 171.485910129 502.448377169 177.077307015 502.448377169 c 0
 242.930113932 502.448377169 274.365087569 426.606459559 313.088867188 404.903320312 c 1
 353.432617188 443.55078125 411.086914062 515 465.015625 515 c 0
 485.330078125 515 506.319335938 508.200195312 506.319335938 491.48046875 c 0
 506.319335938 426.49609375 365.53515625 345.043945312 365.53515625 278.2421875 c 0
 365.53515625 198.24609375 444.47265625 137.620117188 444.47265625 56.28125 c 1
EndSplineSet
EndChar

StartChar: y
Encoding: 121 121 72
Width: 539
Flags: HW
HStem: -87.3896 11.3896<124.283 130.89> -76 10<124.283 137.02> 489 4<196.249 209.769>
VStem: 109.237 145.538<138.642 429.781> 124.283 10<-84.3233 -77.625>
LayerCount: 2
Fore
SplineSet
28 -127.491210938 m 0
 28 -56.259765625 132.739257812 -0.22265625 163.584960938 22.3125 c 1
 163.584960938 22.4482421875 l 1
 139.561523438 100.393554688 105.838867188 188.685546875 105.838867188 283.815429688 c 0
 105.838867188 373.111328125 128.668945312 493.005859375 220.064453125 493.005859375 c 0
 220.440429688 493.005859375 220.81640625 493.00390625 221.194335938 493 c 0
 252.560546875 493 254.840820312 466.810546875 254.840820312 432.267578125 c 0
 254.840820312 426.390625 254.774414062 420.272460938 254.774414062 414 c 0
 254.651367188 360.106445312 247.205078125 249.793945312 247.205078125 179.939453125 c 0
 247.205078125 177.049804688 247.217773438 174.228515625 247.244140625 171.483398438 c 0
 247.244140625 152.633789062 248.333984375 136 257.65234375 136 c 0
 360.221679688 136 346.420898438 490 482.283203125 490 c 0
 501.399414062 490 509.440429688 473.676757812 509.440429688 445.88671875 c 0
 509.440429688 204.926757812 339.935546875 62.09375 188.344726562 -59.1904296875 c 0
 148.120117188 -91.3740234375 91.37109375 -142 45.283203125 -142 c 0x30
 33.412109375 -142 28 -137.87890625 28 -127.491210938 c 0
EndSplineSet
EndChar

StartChar: z
Encoding: 122 122 73
Width: 437
Flags: HW
HStem: 360 136<149.46 218.39>
LayerCount: 2
Fore
SplineSet
28 79.43359375 m 1
 89.1484375 186 219.689453125 288.845703125 280.09375 390.012695312 c 1
 280.09375 398 l 1
 264.349609375 398 l 1
 221.0546875 382.888671875 166.990234375 360 120.525390625 360 c 0
 105.640625 360 96.0419921875 369.216796875 96.0419921875 385.88671875 c 0
 96.0419921875 437.75390625 151.081054688 496 188.250976562 496 c 0
 227.763671875 496 246.993164062 493 280.948242188 493 c 0
 287.713867188 493 297.418945312 493.23046875 308.48046875 493.23046875 c 0
 348.688476562 493.23046875 406.81640625 490.18359375 406.81640625 461.938476562 c 0
 406.81640625 356.219726562 264.556640625 246.020507812 216.584960938 155.27734375 c 1
 216.584960938 155 l 1
 215.013671875 144.774414062 223.811523438 145.013671875 232.122070312 145.110351562 c 0
 271.918945312 145.110351562 319.311523438 172 349.525390625 172 c 1
 350.495117188 165.48828125 350.958984375 159.122070312 350.958984375 152.91015625 c 0
 350.958984375 62.7529296875 253.154296875 5 182.0703125 5 c 0
 117.383789062 5 28 25.505859375 28 79.43359375 c 1
EndSplineSet
EndChar

StartChar: sterling
Encoding: 163 163 74
Width: 975
Flags: HW
HStem: 47.998 161.977<425.907 636.893> 324 157<577.627 687.316> 505 379<676.265 791.527>
VStem: 801.987 140.307<704.513 779.981>
LayerCount: 2
Fore
SplineSet
421.23046875 237.043945312 m 1
 431.680664062 214.016601562 458.377929688 210.55078125 487.329101562 210.55078125 c 0
 499.798828125 210.55078125 512.686523438 211.193359375 524.875 211.193359375 c 0
 532.942382812 211.193359375 540.702148438 210.912109375 547.83203125 209.975585938 c 0
 648.98828125 209.975585938 712.50390625 296 825.731445312 296 c 1
 826.352539062 292.125976562 826.653320312 288.161132812 826.653320312 284.120117188 c 0
 826.653320312 187.849609375 655.6796875 47.998046875 560.849609375 47.998046875 c 0
 541.124023438 47.998046875 518.5234375 49 510.909179688 49 c 0
 423.853515625 49 339.5859375 66 252.236328125 66 c 0
 191.922851562 66 148.572265625 11 92.7314453125 11 c 0
 57.9111328125 11 32 38.2138671875 32 72.568359375 c 0
 32 221.2578125 252.509765625 171.517578125 252.509765625 320.396484375 c 0
 252.509765625 343.951171875 231.215820312 354.384765625 231.215820312 372.639648438 c 0
 231.215820312 465.760742188 324.797851562 463.961914062 347.018554688 498.28125 c 0
 458.594726562 675.658203125 603.458007812 884 810.901367188 884 c 0
 884.357421875 884 942.293945312 839.647460938 942.293945312 766.629882812 c 0
 942.293945312 640.854492188 791.52734375 509.36328125 688.724609375 505 c 0
 676.264648438 505 669.439453125 509.548828125 669.439453125 521.224609375 c 0
 673.741210938 578.94921875 784.499023438 646.594726562 801.987304688 776.315429688 c 0
 801.987304688 778.209960938 801.987304688 780.10546875 801.987304688 782 c 1
 742.873046875 776.670898438 577.625976562 577.543945312 577.625976562 499.623046875 c 0
 577.625976562 492.237304688 579.110351562 485.939453125 582.311523438 481 c 1
 737.989257812 481 l 2
 750.658203125 481 757.090820312 465.688476562 757.090820312 450.598632812 c 0
 753.84375 397.807617188 683.288085938 324 637.48828125 324 c 2
 479.840820312 324 l 1
 460.740234375 314.02734375 421.23046875 266.331054688 421.23046875 237.043945312 c 1
EndSplineSet
EndChar

StartChar: section
Encoding: 167 167 75
Width: 750
Flags: HW
HStem: -254 98<186.645 258.436> 783 83<518.947 579.923>
LayerCount: 2
Fore
SplineSet
382.022460938 420 m 0
 350.358398438 420 342.118164062 360.052734375 342.118164062 344.184570312 c 0
 342.118164062 294.084960938 378.833007812 222 426.03515625 222 c 0
 460.905273438 222 470.779296875 265.326171875 470.783203125 293.505859375 c 0
 470.783203125 345.61328125 431.1640625 420 382.022460938 420 c 0
147.448242188 277.103515625 m 0
 147.448242188 400.830078125 239.674804688 453.26171875 280.298828125 539.654296875 c 1
 280.298828125 571.9921875 265.739257812 601.619140625 265.739257812 632.869140625 c 0
 265.739257812 793.407226562 440.318359375 865.549804688 560.030273438 866 c 0
 647.291015625 866 716.944335938 833.173828125 716.944335938 748.5390625 c 0
 716.944335938 662.45703125 659.818359375 597.451171875 585.459960938 596 c 0
 567.787109375 596 550.018554688 596.540039062 550.018554688 611.537109375 c 0
 550.018554688 657.102539062 580.975585938 691.12109375 580.975585938 746.041015625 c 0
 580.975585938 761.077148438 578.977539062 783 561.986328125 783 c 0
 516.924804688 780.795898438 455.837890625 706.981445312 455.837890625 657.498046875 c 0
 455.837890625 567.12109375 663.836914062 522.735351562 663.836914062 377.124023438 c 0
 663.836914062 261.568359375 591.68359375 176.658203125 507.615234375 115.043945312 c 0
 502.364257812 111.1953125 506.223632812 102.08203125 506.223632812 95.787109375 c 0
 506.223632812 67.638671875 514.290039062 41.677734375 514.290039062 13.9990234375 c 0
 514.290039062 -149.530273438 348.674804688 -252.61328125 215.750976562 -254 c 0
 127.573242188 -254 31 -219.63671875 31 -136.228515625 c 0
 31 -55.5068359375 129.63671875 -2.2158203125 187.387695312 0 c 0
 192.020507812 0 196.373046875 0.2421875 200.225585938 0.2421875 c 0
 209.8046875 0.2421875 216.2890625 -1.255859375 216.2890625 -11.7021484375 c 0
 212.7109375 -51.998046875 186.018554688 -82.4345703125 186.018554688 -128.1015625 c 2
 186.018554688 -128.296875 l 2
 186.018554688 -142.56640625 191.836914062 -156 210.861328125 -156 c 0
 264.780273438 -156 316.4140625 -74.1181640625 316.4140625 -16.78515625 c 0
 316.4140625 89.5126953125 147.448242188 140.48828125 147.448242188 277.103515625 c 0
EndSplineSet
EndChar

StartChar: fi
Encoding: 259 64257 76
Width: 623
Flags: HW
HStem: -198 21G<78.996 118.221> 478.549 20G<480.822 534.961> 670 74<431.754 511.146>
VStem: 380.938 153.547<297.824 375.818>
LayerCount: 2
Fore
SplineSet
240.19921875 129.669921875 m 1
 192.493076308 26.5366271103 196.3763659 -169.282484815 81.4326171875 -198 c 1
 42.5888671875 -198 28 -180.803710938 28 -144.306640625 c 0
 28 -10.3193359375 81.25 102.3671875 119.198242188 225.448242188 c 0
 178.557617188 417.629882812 299.7421875 744 506.432617188 744 c 0
 561.116657026 744 593.359459883 728.303456063 593.359459883 674.155122021 c 0
 593.359459883 615.458262816 558.244877131 547 510.432617188 547 c 0
 483.66015625 547 466.84765625 562.836914062 466.84765625 591.59375 c 0
 466.842365669 591.925226191 466.839750021 592.254939213 466.839750021 592.582935246 c 0
 463.120359013 610.920593459 485.256654916 637.607851831 485.256654916 655.263317492 c 0
 485.256654916 661.613526732 482.392986895 666.795335619 474.432617188 670 c 1
 382.8203125 670 273.239257812 361.400390625 263.87109375 288.897460938 c 1
 263.87109375 288.546875 l 2
 263.87109375 285.215820312 264.840820312 281.296875 264.840820312 281.296875 c 1
 264.840820312 277.790039062 l 1
 274.725585938 277.790039062 l 1
 274.725585938 274.34375 l 1
 276.822265625 274.22265625 286.750976562 273.330078125 290.065429688 273.330078125 c 0
 292.434422246 273.138829164 294.755340427 273.045115109 297.02997021 273.045115109 c 0
 408.609674393 273.045115109 408.805812882 498.548828125 508.432617188 498.548828125 c 0
 536.037109375 498.548828125 543.474609375 470.469726562 543.474609375 437.811523438 c 0
 543.474609375 312.201171875 539.059570312 349.467773438 491.688476562 194.788085938 c 0
 477.459960938 151.483398438 427.864257812 0.431640625 392.9609375 0.431640625 c 0
 354.376181832 0.431640625 315.534479855 23.9036434148 315.534479855 65.0213356068 c 0
 315.534479855 68.0280498762 315.742174408 71.1291192688 316.172851562 74.322265625 c 2
 329.756835938 175.033203125 l 1
 300.737304688 154.107421875 270.616210938 136.20703125 240.19921875 133.217773438 c 1
 240.19921875 129.669921875 l 1
EndSplineSet
EndChar

StartChar: fl
Encoding: 260 64258 77
Width: 838
Flags: HW
HStem: -5 136<439.328 531.108> 121 145<276.955 333.282> 616 139<315.252 436.49> 651 105<677.086 742.431>
LayerCount: 2
Fore
SplineSet
427.573542476 -9.19383153621 m 0
 338.045389894 -9.19383153621 358.7100601 123.950158153 291.887792994 123.950158153 c 0
 145.549376134 123.950158153 245.79882301 -169.281310552 88.5205078125 -192 c 1
 41.1083984375 -192 28 -171.638671875 28 -133.923828125 c 0
 28 70.3440246679 249.615486571 730.564969918 424.40234375 755 c 1
 450.02734375 755 465.125976562 747.02734375 465.125976562 716.689453125 c 0
 464.172851562 664.977539062 409.157226562 486 375.310546875 486 c 1
 368.626682159 492.631688037 366.144191498 500.166152088 366.144191498 508.394356537 c 0
 366.144191498 532.161461135 386.856572674 561.716710591 386.856572674 592.022386365 c 0
 386.856572674 594.071907333 386.761842832 596.12486044 386.559570312 598.1796875 c 0
 386.604492188 603.319335938 383.658203125 622.844726562 377.274414062 616 c 0
 334.296875 569.921875 292.288085938 347.61328125 275.1640625 278.27734375 c 1
 275.1640625 278 l 1
 275.1640625 278 272.3203125 266 282.037109375 266 c 2
 356.65625 266 l 1x60
 425.9273888 420.616057184 580.826365333 727.806196365 740.520507812 756 c 1
 794.655273438 756 808.314453125 709.407226562 808.314453125 658.120117188 c 0
 808.359025196 655.353672732 808.381171556 652.598446448 808.381171556 649.85440229 c 0
 808.381171556 418.197007923 650.54283138 266.23524486 502.9453125 172.280273438 c 1
 502.379882812 168.315429688 502.084960938 164.544921875 502.084960938 161.010742188 c 0
 502.084960938 142.892578125 509.830078125 131 528.477539062 131 c 0
 593.364257812 131.807617188 643.032226562 248.990234375 687.99609375 248.990234375 c 0
 695.481445312 248.990234375 699.161132812 237.194335938 699.161132812 225.090820312 c 0
 692.055495154 98.5964207535 533.674670317 -9.19383153621 427.573542476 -9.19383153621 c 0
533.38671875 284 m 1
 622.750976562 335.497070312 694.811523438 519.33984375 708.072265625 636.587890625 c 0
 708.072265625 643.505859375 706.3046875 651 697.520507812 651 c 0x10
 657.772460938 651 532.23828125 349.709960938 524.549804688 294.35546875 c 1
 524.549804688 294 l 2
 524.549804688 289.979492188 526.913085938 284 533.38671875 284 c 1
EndSplineSet
EndChar

StartChar: AE
Encoding: 198 198 78
Width: 1255
Flags: HW
HStem: -29 159<710.362 916.72> 171.996 165.004<405.21 517.495> 179.991 157.009<405.291 539.816> 203 134<485.222 550.871> 270 150<810.874 1065.22> 724 106<1007.8 1099.65>
LayerCount: 2
Fore
SplineSet
377.619595102 181.605432022 m 0
 214.193430857 178.096909241 225.768317521 -14.9284582085 94.6993209291 -14.9284582085 c 0
 89.7892424896 -14.9284582085 84.6789797267 -14.6575692529 79.3518329933 -14.0956798293 c 0
 77.3869959947 -14.0956798293 75.3959416914 -14.064018606 73.3779296875 -14 c 0
 51.412109375 -14 28 5.5478515625 28 29.9423828125 c 0
 28 84.763671875 120.846679688 153.008789062 120.846679688 183.407226562 c 0
 120.846679688 207.357421875 100.037109375 223.186523438 100.037109375 243.630859375 c 0
 100.037109375 328.819335938 205.80859375 312.234375 248.24609375 345.745117188 c 0
 275.88671875 367.571289062 495.594726562 703.411132812 496.186523438 740.998046875 c 0
 496.186523438 766.15234375 473.666992188 771.3984375 473.666992188 788.98046875 c 0
 473.666992188 824.041015625 554.5390625 819.40625 576.193359375 830 c 1
 584.811523438 830 l 2
 676.59375 830 715.064453125 739.334960938 732.163085938 652 c 1
 759.077148438 652 l 1
 852.881835938 747.887695312 974.064453125 830 1097.453125 830 c 0
 1176.70703125 830 1224.62109375 797.499023438 1224.62109375 723.0234375 c 0
 1224.62109375 588.983398438 1097.45214844 458.094726562 981.663085938 453 c 0
 969.3046875 453 950.766601562 462.388671875 950.766601562 476.036132812 c 0
 950.766601562 544.16015625 1078.20898438 615.40234375 1090.48828125 706.385742188 c 0
 1091.95117188 719.681640625 1080.63574219 724 1072.7109375 724 c 0
 987.024803718 722.03358014 809.371585853 557.517530103 809.371585853 450.49100469 c 0
 809.371585853 443.464380505 810.137329985 436.685555188 811.745117188 430.216796875 c 1
 868.59765625 422.018554688 940.979492188 420 1007.39453125 420 c 0
 1047.78417969 420 1086.28613281 421.985351562 1117.98144531 421.985351562 c 0
 1133.91503906 421.985351562 1138.3359375 417.658203125 1138.3359375 407.29296875 c 0
 1136.75097656 351.583007812 1063.30664062 270 1016.30078125 270 c 2
 796.59765625 270 l 2
 779.600585938 270 779.659179688 242.732421875 779.639648438 229.4609375 c 0
 779.639648438 175.357421875 814.473632812 130 866.86328125 130 c 0
 966.576171875 130 1066.12890625 233 1118.37792969 233 c 0
 1130.38183594 233 1139.88085938 219.689453125 1139.88085938 204.451171875 c 0
 1139.88085938 66.6162109375 851.35546875 -29 752.063476562 -29 c 0
 626.394329171 -29 575.523569743 98.5500818789 549.184570312 203 c 1x94
 523.681358181 202.559570587 494.723429737 179.719335664 467.738399145 179.719335664 c 0
 447.984395489 179.719335664 411.436385482 181.605432022 377.619595102 181.605432022 c 0
536.318359375 337 m 1xa4
 551.292436125 344.68371162 554.389838017 353.8746666 554.389838017 368.513273938 c 0
 554.389838017 378.842523347 552.84765625 391.884133126 552.84765625 409.022460938 c 0
 552.84765625 461.765625 551.341796875 549 525.432617188 549 c 1
 490.438476562 505.89453125 409.845703125 409.38671875 404.260742188 349.571289062 c 0
 404.260742188 343.876953125 406.107421875 337 414.590820312 337 c 2xc4
 536.318359375 337 l 1xa4
EndSplineSet
EndChar

StartChar: OE
Encoding: 261 338 79
Width: 1228
Flags: HW
HStem: -22 168<700.761 828.122> 88 7<358.09 531.23> 270 145<767.468 1018.73> 678 145<388.838 591.529> 732 98<987.302 1098.06>
LayerCount: 2
Fore
SplineSet
1095.35250553 226.225467851 m 0
 1087.04850374 78.2819371775 813.565901762 -23.6820038113 700.068555864 -23.6820038113 c 0
 615.749236029 -23.6820038113 577.01058605 47.3256534946 531.228515625 88 c 1
 454.035721581 36.886936271 350.24728446 -29 248.26953125 -29 c 0
 97.88671875 -29 28 101.723632812 28 246.534179688 c 0
 28 545.666015625 329.553710938 823 573.771484375 823 c 1x70
 584.068564989 825.625001744 593.719096384 826.837746961 602.787290932 826.837746961 c 0
 696.085978983 826.837746961 727.741678472 698.463181545 767.6875 659 c 1
 860.869541225 739.632904725 975.131235976 830 1094.34765625 830 c 0
 1161.47265625 830 1198.45703125 790.146484375 1198.45703125 726.760742188 c 0
 1198.45703125 591.704101562 1057.03613281 458.130859375 940.826171875 453 c 0
 927.836914062 453 915.952148438 458.068359375 915.952148438 468.640625 c 0
 916.029296875 490.467773438 1059.23046875 597.711914062 1064.85449219 713.586914062 c 0
 1064.85449219 730.560546875 1052.94335938 732 1035.80566406 732 c 0
 952.55859375 729.975585938 776.5546875 547.586914062 767.291015625 441.388671875 c 0
 767.291015625 431.376953125 769.805664062 415 784.505859375 415 c 2
 1097.34765625 415 l 1
 1101.1976424 407.9217268 1102.89325479 400.869149696 1102.89325479 393.905765887 c 1
 1082.97666197 333.953348445 1019.8762075 271.124823305 946.762695312 269 c 0
 934.163085938 269 922.291015625 270 909.166992188 270 c 2
 898.17578125 270 l 1
 890.990441967 267.382910508 879.351030157 266.648513394 865.472495332 266.648513394 c 0
 847.720343507 266.648513394 826.304720985 267.850074134 805.861014601 267.850074134 c 0
 767.000542364 267.850074134 731.651836946 263.50854612 731.651836946 238.320280552 c 0
 731.651836946 236.572851126 731.821965133 234.725089378 732.172851562 232.771484375 c 2
 732.172851562 227.426757812 l 2
 732.172851562 171.35546875 778.51953125 146 821.11328125 146 c 0
 935.479492188 146 1028.94433594 247 1093.34765625 247 c 1
 1094.70162172 239.998350305 1095.35250553 233.070828736 1095.35250553 226.225467851 c 0
358.088867188 95 m 1
 495.041010854 115.657944082 571.889180773 359.385306354 573.1640625 489.212890625 c 0
 573.1640625 583.256835938 541.641601562 678 448.122070312 678 c 1
 308.672397563 652.436148077 235.696656109 412.135548736 234.529296875 266.426757812 c 0
 234.529296875 177.208007812 261.532226562 95 358.088867188 95 c 1
EndSplineSet
EndChar

StartChar: ae
Encoding: 230 230 80
Width: 881
Flags: HW
HStem: 150 135<457.004 643.823> 612 137<701.276 764.002> 628 136<371.032 566.362>
LayerCount: 2
Fore
SplineSet
621.670898438 506 m 1
 661.4375 506.120117188 738.013671875 530.80859375 738.013671875 593.927734375 c 0
 738.013671875 611.52734375 718.381835938 612 710.864257812 612 c 0
 664.518554688 612 628.099609375 554.024414062 621.670898438 506 c 1
274.370117188 338 m 0
 371.918945312 338 455.883789062 484.86328125 458.052734375 596.551757812 c 0
 458.052734375 613.98046875 453.266601562 628 434.615234375 628 c 0xa0
 345.592773438 623.995117188 242.483398438 495.296875 238.639648438 391.436523438 c 0
 238.639648438 365.038085938 246.862304688 338 274.370117188 338 c 0
29 281.698242188 m 0
 29 519.0703125 385.650390625 764 547.670898438 764 c 0xa0
 585.052734375 764 577.446289062 694 620.419921875 694 c 0
 667.303710938 694 713.993164062 749 761.525390625 749 c 0xc0
 819.896484375 749 850.622070312 706.30078125 850.622070312 646.4453125 c 0
 850.622070312 481.5390625 695.330078125 436.151367188 587.723632812 414.756835938 c 0
 570.889675443 411.409775176 569.376920616 375.434347546 569.376920616 348.517807865 c 0
 569.376920616 342.395249231 569.455190735 336.741398568 569.44921875 332.046875 c 0
 569.44921875 286.428710938 589.650390625 285 615.50390625 285 c 0
 672.141601562 285 711.606445312 356.228515625 742.258789062 357.000976562 c 1
 744.10546875 222.633789062 594.453125 150.58984375 505.397460938 150 c 0
 408.611328125 150 398.240234375 193.581054688 398.240234375 301.231445312 c 2
 398.240234375 306.272460938 l 1
 377.427734375 306.272460938 l 1
 307.505859375 229.560546875 224.474609375 157.057617188 133.525390625 157.057617188 c 0
 64.5341796875 157.057617188 29 209.94921875 29 281.698242188 c 0
EndSplineSet
EndChar

StartChar: oe
Encoding: 262 339 81
Width: 910
Flags: HW
HStem: 133 128<204.494 307.842> 140 137<478.992 657.258>
LayerCount: 2
Fore
SplineSet
589.92578125 367 m 0
 642.541015625 367 734.891601562 560.875 735.149414062 631.615234375 c 0
 735.149414062 641.155273438 732.314453125 649 721.764648438 649 c 0
 656.7890625 649 585.0234375 474.466796875 577.174804688 415.627929688 c 1
 577.174804688 381.016601562 l 1x00
 578.561523438 368.202148438 583.717773438 367 589.92578125 367 c 0
473.750926545 736.423019028 m 1
 402.472081533 674.402580526 219.123240511 562.063475421 219.123240511 402.192861247 c 0
 219.123240511 392.049182062 219.861368873 381.714149854 221.413085938 371.188476562 c 1
 221.413085938 313.543945312 252.389648438 261 304.6015625 261 c 0x80
 375.743164062 261 419.249023438 343.56640625 419.249023438 425.5390625 c 0
 419.249023438 499.555668216 372.001819306 549.882263115 372.001819306 593.554935397 c 0
 372.001819306 643.723888411 463.469617139 661.742762037 495.473632812 663 c 0
 520.7265625 663 539.34765625 645 569.264648438 645 c 0
 605.232421875 645 684.788085938 740 769.135742188 740 c 0
 837.178710938 740 880.209960938 695.654296875 880.209960938 625.140625 c 0
 880.209960938 455.705865731 710.59558369 375.766167721 606.420898438 296.131835938 c 1
 606.420898438 280.5078125 620.8515625 277 630.264648438 277 c 0
 684.25390625 277 724.661132812 340 769.135742188 340 c 0
 780.588867188 340 791.34375 326.955078125 791.34375 314.322265625 c 0
 791.34375 220.068359375 553.830078125 140 501.376953125 140 c 0x40
 454.200195312 140 424.392578125 172.537109375 399.408203125 212.142578125 c 1
 332.123046875 162.8671875 286.045898438 133 209.166015625 133 c 0x80
 95.7705078125 133 30 216.98828125 30 333.953125 c 0
 30 556.9765625 259.809570312 756.700195312 426.602539062 763 c 0
 449.36503604 763 473.750926545 756.108159726 473.750926545 736.423019028 c 1
EndSplineSet
EndChar

StartChar: onehalf
Encoding: 189 189 82
Width: 843
Flags: HW
HStem: -11 21G<53.3881 110.059> 354 90<620.537 704.959> 383 518<82.37 335.938>
LayerCount: 2
Fore
SplineSet
42.5283203125 413.7734375 m 0
 42.5283203125 528.936523438 179.174804688 613.197265625 179.174804688 727.940429688 c 0
 179.174804688 758.235351562 143.037109375 746.142578125 143.037109375 772.080078125 c 0
 143.037109375 840.076171875 290.692382812 901 335.9375 901 c 0
 352.2421875 901 360.370117188 896.092773438 360.370117188 881.048828125 c 0
 360.370117188 802.997070312 301.767578125 731.309570312 272.501953125 658.9296875 c 0
 231.7890625 558.23828125 202.270507812 383 82.3701171875 383 c 0
 57.4755859375 383 42.5283203125 389.573242188 42.5283203125 413.7734375 c 0
772.40234375 842.241210938 m 0
 770.83203125 741.868164062 158.615234375 -11 63.3701171875 -11 c 0
 45.01171875 -11 31 7.9267578125 31 28.0576171875 c 1
 89.685546875 202.345703125 321.607421875 442.302734375 421.388671875 592.049804688 c 0
 475.34765625 673.029296875 632.416992188 908 718.370117188 908 c 0
 752.723632812 908 772.40234375 879.096679688 772.40234375 842.241210938 c 0
764.455078125 50.9541015625 m 1
 745.634765625 -23.041015625 686.624023438 -77.6689453125 610.009765625 -90.1201171875 c 1
 596.572265625 -90.1201171875 581.61328125 -89 576.47265625 -89 c 0
 528.676757812 -89 454.327148438 -85.3232421875 454.327148438 -42.044921875 c 0
 454.327148438 45.4560546875 642.504882812 137.717773438 662.8203125 287.29296875 c 1
 662.8203125 301.2578125 l 2
 663.724609375 307.3984375 666.466796875 314.521484375 666.466796875 321.509765625 c 0
 666.466796875 338.139648438 662.028320312 354 644.215820312 354 c 0
 643.689453125 354.024414062 643.171875 354.036132812 642.662109375 354.036132812 c 0
 586.41796875 354.036132812 628.611328125 208.852539062 581.381835938 198 c 1
 543.349609375 198 527.9921875 241.288085938 527.9921875 281.313476562 c 0
 529.734375 383.006835938 622.678710938 444 701.370117188 444 c 0xc0
 764.495117188 444 809.805664062 411.26171875 809.805664062 349.198242188 c 0
 809.805664062 210.650390625 648.220703125 135.569335938 636.411132812 48.70703125 c 0
 636.411132812 46.8046875 636.411132812 44.90234375 636.411132812 43 c 1
 678.009765625 43 723.8984375 50.314453125 764.455078125 50.9541015625 c 1
EndSplineSet
EndChar

StartChar: onequarter
Encoding: 188 188 83
Width: 823
Flags: HW
HStem: 382 524<86.8947 339.267>
LayerCount: 2
Fore
SplineSet
37.0048828125 419.772460938 m 0
 37.0048828125 528.6015625 171.970703125 614.5546875 171.970703125 724.793945312 c 0
 171.970703125 757.637695312 137.411132812 745.854492188 137.411132812 776.034179688 c 0
 139.248046875 837.416992188 291.309570312 903.932617188 339.266601562 906 c 0
 352.864257812 906 360.461914062 896.341796875 360.461914062 881.102539062 c 0
 360.461914062 823.004882812 304.07421875 734.198242188 284.72265625 687.971679688 c 0
 245.3046875 593.80859375 209.364257812 382 86.89453125 382 c 0
 57.17578125 382 37.0048828125 391.83203125 37.0048828125 419.772460938 c 0
31.89453125 37 m 1
 114.827305819 226.099742847 613.261467117 914 724.89453125 914 c 0
 756.03125 914 767.244140625 883.439453125 767.244140625 852.927734375 c 0
 767.244140625 719.969726562 330.15234375 238.883789062 228.8125 125.48828125 c 0
 192.977539062 85.3896484375 122.073242188 -5 60.89453125 -5 c 0
 40.1259765625 -5 31 5.796875 31 25.193359375 c 0
 31 28.728515625 31.3037109375 32.55078125 31.89453125 36.64453125 c 2
 31.89453125 37 l 1
515.096679688 -66.314453125 m 0
 515.096679688 -5.9873046875 552.994140625 32.810546875 561.705078125 100 c 1
 461.8046875 100 l 1
 457.779296875 103.208984375 448.4375 111.071289062 448.4375 115.081054688 c 0
 448.4375 225.686523438 572.801757812 443 684.89453125 443 c 0
 699.818359375 443 708.362304688 439.799804688 708.362304688 426.344726562 c 0
 708.362304688 347.004882812 586.325195312 290.64453125 574.782226562 209 c 1
 626.728515625 209 l 2
 638.557617188 209 688.291992188 303 768.89453125 303 c 0
 777.096679688 303 790.032226562 307.447265625 790.032226562 297.321289062 c 0
 790.032226562 282.110351562 781.889648438 243.012695312 781.83984375 228.173828125 c 0
 781.83984375 213.892990509 784.720665076 211.595211422 784.720665076 200.622414187 c 0
 784.720665076 157.41387737 745.39401875 148.62660409 722.877929688 116.978515625 c 0
 653.10546875 23.8623046875 690.98828125 -91 556.088867188 -91 c 0
 531.014648438 -91 515.096679688 -89.814453125 515.096679688 -66.314453125 c 0
EndSplineSet
EndChar

StartChar: threequarters
Encoding: 190 190 84
Width: 942
Flags: HW
HStem: 350 83<147.448 217.551> 816 90<273.263 361.728>
LayerCount: 2
Fore
SplineSet
563.62109375 131.94140625 m 1
 589.817382812 224.2578125 682.522460938 443.186523438 798.286132812 443.186523438 c 0
 800.2265625 443.186523438 802.173828125 443.125 804.126953125 443 c 0
 807.74609375 443 811.499023438 443.170898438 815.021484375 443.170898438 c 0
 823.958007812 443.170898438 831.409179688 442.069335938 831.409179688 434.276367188 c 0
 831.409179688 354.157226562 706.890625 301.571289062 695.672851562 217.672851562 c 1
 695.672851562 212 l 1
 788.112304688 212 790.369140625 303 887.126953125 303 c 0
 892.814453125 303 904.575195312 302.846679688 908.418945312 302.4765625 c 1
 908.418945312 298.6953125 l 1
 905.302734375 285.224609375 904.44140625 273.145507812 904.44140625 261.615234375 c 0
 904.44140625 247.338867188 905.762695312 233.903320312 905.762695312 219.708984375 c 0
 905.762695312 161.936523438 866.765625 152.248046875 842.72265625 108.3671875 c 0
 791.508789062 13.1064453125 783.110351562 -91 669.043945312 -91 c 0
 648.915039062 -91 635.96484375 -81.625 635.96484375 -61.9912109375 c 0
 635.96484375 -18.111328125 683.06640625 24.435546875 683.06640625 68.513671875 c 0
 683.06640625 78.9111328125 680.4453125 89.39453125 673.966796875 100 c 1
 576.123046875 100 l 1
 571.048828125 104.826171875 563.62109375 127.470703125 563.62109375 131.94140625 c 1
887.2734375 846.52734375 m 0
 886.451171875 738.708984375 271.879882812 -7 184.6171875 -7 c 0
 161.633789062 -7 146.552734375 8.34375 146.552734375 32.32421875 c 1
 250.955078125 253.323242188 467.551757812 494.294921875 613.874023438 698.958007812 c 0
 658.204101562 760.963867188 768.989257812 914 842.126953125 914 c 0
 874.188476562 914 887.2734375 880.052734375 887.2734375 846.52734375 c 0
239.509765625 655.235351562 m 0
 239.219726562 656.908203125 239.080078125 658.590820312 239.080078125 660.283203125 c 0
 239.080078125 700.828125 319.090820312 746.625976562 319.090820312 788.768554688 c 0
 319.090820312 798.0546875 315.206054688 807.1640625 305.723632812 816 c 1
 257.681640625 816 248.9921875 707 217.108398438 707 c 0
 189.302734375 707 178.763671875 741.2734375 178.763671875 771.443359375 c 0
 179.672851562 866.963867188 291.329101562 905.01953125 358.892578125 906 c 0
 412.048828125 906 457.477539062 875.513671875 457.477539062 821.383789062 c 0
 457.477539062 755.745117188 420.719726562 735.572265625 375.275390625 695.1328125 c 1
 375.275390625 691.560546875 l 1
 394.697265625 656.265625 435.41015625 648.432617188 435.41015625 608.151367188 c 0
 435.41015625 484.47265625 252.578125 350 151.126953125 350 c 0
 88.607421875 350 32 380.750976562 32 442.2109375 c 0
 32 529.220703125 117.55859375 602.931640625 189.540039062 605 c 0
 200.754882812 605 209.7421875 607.189453125 208.284179688 594.610351562 c 0
 203.205078125 554.368164062 153.969726562 520.899414062 153.969726562 461.274414062 c 0
 153.969726562 450.758789062 155.932617188 433 171.817382812 433 c 0
 229.15625 435.741210938 286.673828125 534.82421875 286.673828125 589.663085938 c 0
 286.673828125 632.0625 239.509765625 628.684570312 239.509765625 655.235351562 c 0
EndSplineSet
EndChar

StartChar: multiply
Encoding: 215 215 85
Width: 770
Flags: HW
HStem: 673 20G<686.165 698.678>
LayerCount: 2
Fore
SplineSet
251.146484375 716 m 0
 251.505158992 716.00451167 251.863017382 716.00676042 252.220063813 716.00676042 c 0
 345.625093756 716.00676042 383.461963699 562.108977124 442.100585938 508 c 0
 442.884765625 508 447.719726562 507.4765625 453.580078125 507.4765625 c 0
 461.409179688 507.4765625 471.0703125 508.411132812 475.350585938 512.779296875 c 2
 628.770507812 662.03125 l 2
 646.891601562 679.974609375 674.998046875 693 697.331054688 693 c 0
 722.869140625 693 740.045898438 678.556640625 740.045898438 650.416015625 c 0
 740.045898438 529.614257812 516.583007812 433.342773438 508.690429688 371.334960938 c 1
 508.690429688 358.704101562 l 1
 544.911132812 290.870117188 624.643554688 205.672851562 624.643554688 127.780273438 c 0
 624.643554688 107.17578125 602.569335938 89 588.989257812 89 c 0
 528.43359375 89 438.884765625 280.83203125 376.77734375 280.83203125 c 0
 261.447265625 280.83203125 171.7890625 111 57.3310546875 111 c 0
 41.609375 111 28 120.7734375 28 140.53125 c 0
 28 238.442907105 302.265320773 309.451358073 302.265320773 361.181887037 c 0
 302.265320773 364.548222116 301.103894238 367.832921318 298.629882812 371.038085938 c 2
 161.892578125 548.186523438 l 2
 156.57421875 554.403320312 154.865234375 564.645507812 154.865234375 576.208984375 c 0
 157.458007812 654.967773438 181.802734375 716 251.146484375 716 c 0
EndSplineSet
EndChar

StartChar: f_f
Encoding: 263 64256 86
Width: 761
Flags: HW
LayerCount: 2
Fore
SplineSet
731.21484375 945.336914062 m 0
 730.221404741 887.87691902 697.898621099 737.457270419 653.288085938 715 c 1
 644.19140625 715 641.479492188 728.116210938 641.479492188 747.059570312 c 0
 641.479492188 767.24609375 646.275390625 793.989977282 646.275390625 818.65234375 c 2
 646.275390625 845.849609375 l 1
 636.748046875 821.095703125 l 1
 592.27734375 719.684570312 555.84765625 607.6640625 545.702148438 493.528320312 c 0
 545.702148438 488.994140625 545.702148438 484.4609375 545.702148438 479.926757812 c 1
 556.2421875 481.297851562 580.88671875 484.364257812 603.455078125 484.364257812 c 0
 632.276367188 484.364257812 657.76953125 478.438476562 657.76953125 454.150390625 c 0
 657.76953125 301.565429688 500.259765625 313.60546875 492.1640625 290.607421875 c 0
 471.106445312 232.559570312 445.516601562 -37 351.88671875 -37 c 0
 318.305664062 -37 284.045898438 -22.310546875 284.045898438 13.865234375 c 0
 284.045898438 120.233398438 315.298828125 210.36328125 330.12109375 311 c 1
 264.767578125 311 l 2
 223.203125 311 217.163085938 -30 100.288085938 -30 c 0
 45.064453125 -30 28 2.0810546875 28 53.26171875 c 0
 28 256.906062119 251.369014066 1007 458.583007812 1007 c 0
 480.054150004 1007 484.568653651 980.216647431 484.568653651 953.359442506 c 0
 484.568653651 890.985965871 442.227765804 736.639788381 402.788085938 715 c 1
 395.999023438 715 393.909179688 729.03125 393.909179688 748.20703125 c 0
 393.909179688 766.373046875 395.784179688 789.15625 397.315429688 809 c 1
 386.146484375 809 l 2
 385.942382812 808.021484375 381.28125 803.6484375 381.28125 803.6484375 c 1
 383.579846899 787.000670959 306.789418106 609.037520049 306.789418106 518.575862986 c 0
 306.789418106 507.155883366 308.013213101 497.130399024 310.774414062 489 c 1
 369.505859375 489 l 2
 400.034179688 489 542.838867188 1001 692.288085938 1001 c 0
 722.595703125 1001 731.21484375 976.58984375 731.21484375 945.336914062 c 0
EndSplineSet
EndChar

StartChar: f_f_i
Encoding: 264 64259 87
Width: 909
Flags: HW
HStem: 360.059 140.941<532.123 583.617>
VStem: 743.409 133.824<837.224 900.54>
LayerCount: 2
Fore
SplineSet
470.240234375 949.458984375 m 0
 469.264165317 891.071114473 436.842192984 742.252570767 392.192382812 719 c 1
 388.428710938 719 387.208984375 729.290039062 387.208984375 744.133789062 c 0
 387.208984375 762.9140625 389.161132812 788.984375 390.385742188 810.732421875 c 1
 390.385742188 812.287109375 l 1
 389.114257812 813.0625 385.2734375 813.436523438 383.962890625 813.436523438 c 0
 349.903320312 813.436523438 303.663085938 560.075195312 296.025390625 504 c 1
 304.336914062 504 344.599609375 501 359.723632812 501 c 0
 397.896066156 501 528.508789062 1012 790.188476562 1012 c 0
 845.982421875 1012 879.096679688 981.68359375 879.096679688 925.166992188 c 0
 879.096679688 859.969726562 844.915039062 789 786.188476562 789 c 0
 751.393554688 789 741.94921875 812.9609375 741.94921875 842.147460938 c 0
 741.94921875 860.856445312 749.401367188 881.362304688 749.401367188 899.780273438 c 0
 749.401367188 912.774414062 738.9921875 914 732.62109375 914 c 1
 614.625452531 834.263838302 531.556357055 656.58043028 529.817382812 522.146484375 c 0
 529.817382812 511.600585938 538.845703125 501 549.616210938 501 c 0
 708.71484375 501 679.748046875 741 789.188476562 741 c 0
 819.995117188 741 827.870117188 708.237304688 827.870117188 672.45703125 c 0
 827.870117188 552.597335308 744.397039344 211.313252198 644.0703125 186.381835938 c 1
 596.764648438 186.381835938 585.5078125 242.098632812 585.5078125 296.556640625 c 0
 585.5078125 319.333984375 587.4765625 341.890625 589.6015625 360.05859375 c 1
 588.518554688 360.05859375 577.06640625 361.07421875 574.213867188 361.07421875 c 0
 401.655273438 361.07421875 489.485351562 -33 322.334960938 -33 c 0
 280.936523438 -33 268.203125 -2.1416015625 268.203125 38.3994140625 c 0
 268.203125 134.340820312 321.686523438 206.700195312 321.686523438 297.723632812 c 0
 321.686523438 307.41796875 318.634765625 315.254882812 308.573242188 315.254882812 c 1
 300.5620493 317.624699785 293.232790588 318.746358383 286.512591447 318.746358383 c 0
 167.338165838 318.746358383 239.704683389 -34 97.1884765625 -34 c 0
 43.33203125 -34 28 -1.8984375 28 47.8388671875 c 0
 28 222.072710574 248.511763841 964.409906907 438.435546875 997 c 1
 463.431640625 997 470.240234375 976.012695312 470.240234375 949.458984375 c 0
EndSplineSet
EndChar

StartChar: f_f_l
Encoding: 265 64260 88
Width: 1152
Flags: HW
HStem: 174 152<676.848 851.342> 711 21G<394.645 415.395 652.006 675.344> 879 121<981.221 1044.48>
LayerCount: 2
Fore
SplineSet
834.037109375 495 m 1
 929.337890625 572.944335938 1008.35058594 725.397460938 1008.35058594 860.873046875 c 0
 1008.35058594 871.017578125 1005.38671875 879 995.151367188 879 c 0
 952.12109375 879 820.508789062 537.501953125 814.500976562 495 c 1
 834.037109375 495 l 1
28 45.7255859375 m 0
 28 232.243024173 249.937155706 993 447.561523438 993 c 0
 480.8828125 993 484.041992188 965.404296875 484.041992188 941.643554688 c 0
 484.041992188 889.87890625 439.155273438 723.874023438 396.163085938 711 c 0
 393.125 711 384.102539062 712.259765625 384.2890625 713.541015625 c 2
 397.935546875 807 l 1
 382.325195312 807 l 2
 371.946289062 807 293.1640625 522.44921875 293.1640625 487.16015625 c 0
 293.1640625 472.442382812 307.499023438 469.33203125 320.508789062 469.33203125 c 0
 330.036132812 469.33203125 338.852539062 471 340.811523438 471 c 0
 354.282226562 471 375.336914062 471.454101562 383.873046875 489.959960938 c 0
 434.27734375 609.287109375 565.092773438 1001 703.564453125 1001 c 0
 735.560546875 1001 748.557617188 986.212890625 748.557617188 955.55859375 c 0
 748.557617188 898.619140625 699.584960938 711 655.131835938 711 c 0
 648.87890625 711 643.064453125 711.850585938 643.232421875 713.373046875 c 2
 660.82421875 839 l 1
 642.282226562 839 l 1
 636.737175543 830.239335345 548.402777583 577.774352322 548.402777583 493.590594329 c 0
 548.402777583 483.322003848 549.717078782 475.557219596 552.65625 471.043945312 c 1
 618.298828125 471.043945312 l 2
 645.366210938 471.043945312 669.234375 560.01953125 678.264648438 576.631835938 c 0
 735.080078125 683.526367188 920.201171875 1000 1042.06835938 1000 c 0
 1102.85253906 1000 1122.34375 948.161132812 1122.34375 886.598632812 c 0
 1122.34375 648.49740939 949.456117676 486.078389651 809.40625 384.396484375 c 0
 795.184570312 374.065429688 789.204101562 368.875976562 789.204101562 350.762695312 c 0
 789.204101562 329.436523438 808.391601562 326 821.1875 326 c 0
 880.513671875 326 935.758789062 450.979492188 983.434570312 450.979492188 c 0
 1001.11523438 450.979492188 1006.55566406 445.811523438 1006.55566406 433.2578125 c 0
 997.8515625 302.103515625 841.154296875 174 744.08984375 174 c 0
 609.60546875 174 614.396484375 314 587.91796875 314 c 0
 577.046875 314 501.974609375 308.575195312 496.174804688 287.337890625 c 0
 471.68560201 211.302109372 445.604062672 -5.63357860238 362.912061859 -31.0764033181 c 1
 355.269682761 -31.0764033181 346.577718284 -30 342.83203125 -30 c 0
 342.434570312 -30 342.087890625 -30 341.799804688 -30 c 0
 291.619140625 -30 270.1328125 -9.6181640625 270.1328125 37.44921875 c 0
 270.1328125 125.969726562 311.8515625 198.424804688 322.95703125 280.19921875 c 0
 325.146484375 292.38671875 320.637695312 302 308.193359375 302 c 1
 300.376999524 304.258087937 293.212687914 305.327370867 286.631420586 305.327370867 c 0
 168.875154168 305.327370867 237.778573829 -37 98.068359375 -37 c 0
 46.373046875 -37 28 -3.919921875 28 45.7255859375 c 0
EndSplineSet
EndChar

StartChar: parenright
Encoding: 41 41 89
Width: 486
Flags: HW
VStem: 274.811 177.812<372.954 597.992>
LayerCount: 2
Fore
SplineSet
274.810546875 567.107421875 m 5
 276.125976562 574.612304688 276.735351562 581.752929688 276.735351562 588.56640625 c 4
 276.735351562 662.754882812 204.506835938 698.21484375 185.061523438 744.547851562 c 5
 185.061523438 791.084960938 254.760742188 799.200195312 284.83203125 799.200195312 c 4
 397.84375 797.002929688 452.623046875 699.168945312 452.623046875 587.607421875 c 4
 452.623046875 316.546875 268.221679688 83.875 48.201171875 -28.7998046875 c 5
 38.7431640625 -28.7998046875 31 -25.4423828125 31 -16.705078125 c 5
 131.111328125 162.090820312 275.1953125 313.725585938 275.1953125 546.213867188 c 4
 275.1953125 553.106445312 275.068359375 560.0703125 274.810546875 567.107421875 c 5
EndSplineSet
EndChar

StartChar: bracketright
Encoding: 93 93 90
Width: 577
Flags: HW
HStem: -3 147<262.73 359.884> 695 137<426.878 576.03>
LayerCount: 2
Fore
SplineSet
200.78515625 117 m 1
 249.338867188 246.2421875 324.127929688 534.901367188 373.313476562 656 c 1
 373.313476562 657.849609375 l 1
 364.93359375 668 l 1
 322.264648438 668 l 2
 275.509765625 668 229.127929688 674.219726562 229.127929688 715.618164062 c 0
 229.127929688 813.178710938 324.51171875 815 409.538085938 815 c 2
 413.172851562 815 l 2
 472.037109375 815 543.875 806.069335938 543.875 762.58984375 c 1
 522.135742188 665.848632812 434.282226562 329.970703125 381.729492188 146.088867188 c 0
 370.973632812 108.455078125 341.081054688 -20 297.221679688 -20 c 2
 108.80859375 -20 l 2
 63.9453125 -20 31 9.5615234375 31 51.9677734375 c 0
 31 69.958984375 50.138671875 117 63.80859375 117 c 2
 200.78515625 117 l 1
EndSplineSet
EndChar

StartChar: quotedbl
Encoding: 34 34 91
Width: 519
Flags: HW
LayerCount: 2
Fore
SplineSet
298.545550159 765.515837689 m 1
 279.318543528 676.999751032 213.612544168 515.127822531 118.461914062 486.846679688 c 1
 105.456054688 486.846679688 87.640625 493.756835938 87.640625 506.4375 c 1
 114.313348068 614.096425704 144.398540442 779.164361768 251.979492188 791 c 0
 258.37109375 791 265.534179688 791.530273438 272.193359375 791.530273438 c 0
 282.652703757 791.530273438 298.545550159 787.29499821 298.545550159 765.515837689 c 1
485.923828125 778.127929688 m 1
 463.026737159 693.420828476 399.657087295 511.415022849 308.461914062 486.846679688 c 1
 295.456054688 486.846679688 277.640625 493.756835938 277.640625 506.4375 c 1
 304.313348068 614.096425704 334.398540442 779.164361768 441.979492188 791 c 0
 448.37109375 791 455.534179688 791.530273438 462.193359375 791.530273438 c 0
 474.991210938 791.530273438 485.923828125 789.572265625 485.923828125 778.127929688 c 1
EndSplineSet
EndChar
